<?xml version="1.0" standalone="no"?><!DOCTYPE svg PUBLIC "-//W3C//DTD SVG 1.1//EN" "http://www.w3.org/Graphics/SVG/1.1/DTD/svg11.dtd"><svg t="1556164967489" class="icon" style="" viewBox="0 0 1078 1024" version="1.1" xmlns="http://www.w3.org/2000/svg" p-id="2095" xmlns:xlink="http://www.w3.org/1999/xlink" width="315.8203125" height="300"><defs><style type="text/css"></style></defs><path d="M149.773474 284.887579v-138.509474c0-12.288 16.060632-26.138947 39.882105-26.138947h163.301053a59.877053 59.877053 0 0 0 0-119.754105h-163.301053C103.316211 0.485053 30.019368 63.595789 30.019368 146.324211v138.563368a59.877053 59.877053 0 1 0 119.754106 0zM753.502316 120.239158h134.736842c23.875368 0 39.936 13.850947 39.936 26.085053v138.563368a59.877053 59.877053 0 0 0 119.754105 0v-138.509474c0-82.728421-73.296842-145.893053-159.63621-145.893052H753.502316a59.877053 59.877053 0 0 0 0 119.754105z m174.672842 613.807158v140.395789c0 10.940632-15.791158 24.252632-39.882105 24.252632H740.567579a59.877053 59.877053 0 0 0 0 119.808h147.779368c86.123789 0 159.636211-61.978947 159.636211-144.060632V734.046316a59.877053 59.877053 0 0 0-119.754105 0zM359.855158 898.694737a59.877053 59.877053 0 0 1 0 119.808H189.655579c-86.123789 0-159.636211-61.978947-159.636211-144.060632V734.046316a59.877053 59.877053 0 1 1 119.754106 0v140.395789c0 10.940632 15.791158 24.252632 39.882105 24.252632h170.199579zM59.877053 449.589895H1018.125474a59.877053 59.877053 0 1 1 0 119.754105H59.877053a59.877053 59.877053 0 0 1 0-119.754105z" p-id="2096"></path></svg>