<svg xmlns="http://www.w3.org/2000/svg" width="21.5" height="22.5" viewBox="0 0 21.5 22.5">
  <metadata><?xpacket begin="﻿" id="W5M0MpCehiHzreSzNTczkc9d"?>
<x:xmpmeta xmlns:x="adobe:ns:meta/" x:xmptk="Adobe XMP Core 5.6-c142 79.160924, 2017/07/13-01:06:39        ">
   <rdf:RDF xmlns:rdf="http://www.w3.org/1999/02/22-rdf-syntax-ns#">
      <rdf:Description rdf:about=""/>
   </rdf:RDF>
</x:xmpmeta>
                                                                                                    
                                                                                                    
                                                                                                    
                                                                                                    
                                                                                                    
                                                                                                    
                                                                                                    
                                                                                                    
                                                                                                    
                                                                                                    
                                                                                                    
                                                                                                    
                                                                                                    
                                                                                                    
                                                                                                    
                                                                                                    
                                                                                                    
                                                                                                    
                                                                                                    
                                                                                                    
                           
<?xpacket end="w"?></metadata>
<defs>
    <style>
      .cls-1 {
        opacity: 0.5;
      }

      .cls-2 {
        opacity: 0;
      }

      .cls-3 {
        fill-rule: evenodd;
      }

      .cls-4 {
        fill: none;
        stroke: #fff;
        stroke-miterlimit: 10;
        stroke-width: 1px;
      }
    </style>
  </defs>
  <g id="姓名" class="cls-1">
    <rect id="矩形" class="cls-2" width="20" height="20"/>
    <path id="形状" class="cls-3" d="M2072.86,1113.69a6.862,6.862,0,0,0-13.72,0,6.6,6.6,0,0,0,2.45,5.12,9.129,9.129,0,0,0-4.87,7.39v0.14l-0.01.01v0.02a0.636,0.636,0,0,0,.64.63,0.627,0.627,0,0,0,.45-0.18,0.636,0.636,0,0,0,.19-0.45v-0.02H2058l0.01-.13a7.747,7.747,0,0,1,4.84-6.6,8.2,8.2,0,0,0,3.15.76,6.933,6.933,0,0,0,2.97-.67l0.7-.4,0.56-.37a6.583,6.583,0,0,0,2.63-5.25h0Zm-6.86,5.34a5.342,5.342,0,1,1,5.48-5.34A5.421,5.421,0,0,1,2066,1119.03Z" transform="translate(-2056 -1107)"/>
    <path id="形状-2" data-name="形状" class="cls-3" d="M2070.75,1116.5a6.25,6.25,0,1,1-6.25,6.25A6.252,6.252,0,0,1,2070.75,1116.5Zm1.55,3.75a0.64,0.64,0,0,0-.89,0l-3.98,3.98V1126h1.77l3.98-3.98a0.61,0.61,0,0,0,0-.88Zm1.32-1.32a0.623,0.623,0,0,0-.61-0.17,0.644,0.644,0,0,0-.44.45,0.611,0.611,0,0,0,.17.6l0.88,0.89a0.629,0.629,0,0,0,.89-0.89Z" transform="translate(-2056 -1107)"/>
    <circle id="路径" class="cls-4" cx="14.75" cy="15.75" r="6.25"/>
  </g>
</svg>
