<svg id="清理缓存" xmlns="http://www.w3.org/2000/svg" width="24" height="24" viewBox="0 0 24 24">
  <metadata><?xpacket begin="﻿" id="W5M0MpCehiHzreSzNTczkc9d"?>
<x:xmpmeta xmlns:x="adobe:ns:meta/" x:xmptk="Adobe XMP Core 5.6-c142 79.160924, 2017/07/13-01:06:39        ">
   <rdf:RDF xmlns:rdf="http://www.w3.org/1999/02/22-rdf-syntax-ns#">
      <rdf:Description rdf:about=""/>
   </rdf:RDF>
</x:xmpmeta>
                                                                                                    
                                                                                                    
                                                                                                    
                                                                                                    
                                                                                                    
                                                                                                    
                                                                                                    
                                                                                                    
                                                                                                    
                                                                                                    
                                                                                                    
                                                                                                    
                                                                                                    
                                                                                                    
                                                                                                    
                                                                                                    
                                                                                                    
                                                                                                    
                                                                                                    
                                                                                                    
                           
<?xpacket end="w"?></metadata>
<defs>
    <style>
      .cls-1 {
        opacity: 0;
      }

      .cls-2 {
        fill: #7f7f7f;
        stroke: #7f7f7f;
        stroke-miterlimit: 10;
        stroke-width: 0.2px;
        fill-rule: evenodd;
      }
    </style>
  </defs>
  <rect id="矩形" class="cls-1" width="24" height="24"/>
  <path id="形状" class="cls-2" d="M541.436,1123.78a0.661,0.661,0,0,1-.354-0.1l-11.159-6.49a0.705,0.705,0,0,1,.708-1.22l11.159,6.5a0.7,0.7,0,0,1,.253.96A0.714,0.714,0,0,1,541.436,1123.78Zm-3.687,5.72a2.018,2.018,0,0,1-.987-0.27l-9.4-5.48a1.988,1.988,0,0,1-.72-2.7l3.9-6.81a1.989,1.989,0,0,1,1.709-1,2.017,2.017,0,0,1,.986.27l2.654,1.55,3.023-5.28a2.521,2.521,0,1,1,4.362,2.53l-3.029,5.28,2.391,1.4a1.984,1.984,0,0,1,.72,2.7l-3.9,6.81a1.987,1.987,0,0,1-1.709,1h0Zm-5.5-14.85a0.559,0.559,0,0,0-.488.29l-3.9,6.8a0.581,0.581,0,0,0,.209.79l9.4,5.47a0.553,0.553,0,0,0,.278.08,0.559,0.559,0,0,0,.488-0.29l3.9-6.81a0.571,0.571,0,0,0-.206-0.78l-3-1.74a0.708,0.708,0,0,1-.255-0.96l3.373-5.89a1.132,1.132,0,0,0-.408-1.54,1.079,1.079,0,0,0-.551-0.15,1.1,1.1,0,0,0-.961.56l-3.375,5.89a0.707,0.707,0,0,1-.966.26l-3.267-1.9a0.54,0.54,0,0,0-.276-0.08h0Z" transform="translate(-523 -1107)"/>
</svg>
