<svg id="版本信息" xmlns="http://www.w3.org/2000/svg" width="21.469" height="21.5" viewBox="0 0 21.469 21.5">
  <metadata><?xpacket begin="﻿" id="W5M0MpCehiHzreSzNTczkc9d"?>
<x:xmpmeta xmlns:x="adobe:ns:meta/" x:xmptk="Adobe XMP Core 5.6-c142 79.160924, 2017/07/13-01:06:39        ">
   <rdf:RDF xmlns:rdf="http://www.w3.org/1999/02/22-rdf-syntax-ns#">
      <rdf:Description rdf:about=""/>
   </rdf:RDF>
</x:xmpmeta>
                                                                                                    
                                                                                                    
                                                                                                    
                                                                                                    
                                                                                                    
                                                                                                    
                                                                                                    
                                                                                                    
                                                                                                    
                                                                                                    
                                                                                                    
                                                                                                    
                                                                                                    
                                                                                                    
                                                                                                    
                                                                                                    
                                                                                                    
                                                                                                    
                                                                                                    
                                                                                                    
                           
<?xpacket end="w"?></metadata>
<defs>
    <style>
      .cls-1 {
        opacity: 0;
      }

      .cls-2 {
        fill: #7f7f7f;
        stroke: #7f7f7f;
        stroke-miterlimit: 10;
        stroke-width: 0.5px;
        fill-rule: evenodd;
      }
    </style>
  </defs>
  <rect id="矩形" class="cls-1" width="20" height="20"/>
  <path id="形状" class="cls-2" d="M535.218,1171.31a1.406,1.406,0,1,0-1.364-1.41A1.387,1.387,0,0,0,535.218,1171.31Zm1.17,9.2h-2.34l0.142-7.82h2.055Zm-1.17-15.13a8.83,8.83,0,0,1,3.448.69,8.891,8.891,0,0,1,4.715,4.72,8.859,8.859,0,1,1-16.326,0,8.891,8.891,0,0,1,4.715-4.72,8.823,8.823,0,0,1,3.448-.69m0-1.14a10,10,0,1,0,10,10,10,10,0,0,0-10-10h0Z" transform="translate(-524 -1163)"/>
</svg>
