<svg id="图标" xmlns="http://www.w3.org/2000/svg" viewBox="0 0 30 30"><title>app图标</title><g id="图层_9" data-name="图层 9"><path d="M15,0A15,15,0,1,0,30,15,15,15,0,0,0,15,0Zm0,28.56A13.56,13.56,0,1,1,28.56,15,13.57,13.57,0,0,1,15,28.56Z" style="fill:#818181"/><path d="M18.39,8.38a5.49,5.49,0,0,0-3.54-1,4.84,4.84,0,0,0-2.74.71C11,8.81,10.52,10,10.52,12h2.79a2.83,2.83,0,0,1,.25-1.57A1.62,1.62,0,0,1,15,9.58a1.63,1.63,0,0,1,1.47.65,2,2,0,0,1,.42,1.31,2,2,0,0,1-.46,1.14,2.16,2.16,0,0,1-.54.55,7.52,7.52,0,0,0-2,1.75,4.71,4.71,0,0,0-.56,2.36c0,.07,0,.21.26.21h2.24a.23.23,0,0,0,.25-.22,6.64,6.64,0,0,1,.12-1.07,2,2,0,0,1,.72-1l.75-.52a8.46,8.46,0,0,0,1.45-1.3,3.45,3.45,0,0,0,.7-2.06A3.54,3.54,0,0,0,18.39,8.38ZM14.65,19a1.65,1.65,0,0,0-1.74,1.65,1.62,1.62,0,0,0,1.65,1.72,1.62,1.62,0,0,0,1.76-1.62A1.64,1.64,0,0,0,14.65,19Z" style="fill:#22609c"/></g></svg>