<svg xmlns="http://www.w3.org/2000/svg" width="21.5" height="17.5" viewBox="0 0 21.5 17.5">
  <metadata><?xpacket begin="﻿" id="W5M0MpCehiHzreSzNTczkc9d"?>
<x:xmpmeta xmlns:x="adobe:ns:meta/" x:xmptk="Adobe XMP Core 5.6-c142 79.160924, 2017/07/13-01:06:39        ">
   <rdf:RDF xmlns:rdf="http://www.w3.org/1999/02/22-rdf-syntax-ns#">
      <rdf:Description rdf:about=""/>
   </rdf:RDF>
</x:xmpmeta>
                                                                                                    
                                                                                                    
                                                                                                    
                                                                                                    
                                                                                                    
                                                                                                    
                                                                                                    
                                                                                                    
                                                                                                    
                                                                                                    
                                                                                                    
                                                                                                    
                                                                                                    
                                                                                                    
                                                                                                    
                                                                                                    
                                                                                                    
                                                                                                    
                                                                                                    
                                                                                                    
                           
<?xpacket end="w"?></metadata>
<defs>
    <style>
      .cls-1 {
        opacity: 0.5;
      }

      .cls-2 {
        opacity: 0;
      }

      .cls-3 {
        fill-rule: evenodd;
      }

      .cls-4 {
        fill: none;
        stroke: #fff;
        stroke-miterlimit: 10;
        stroke-width: 1px;
      }
    </style>
  </defs>
  <g id="邮箱" class="cls-1">
    <rect id="矩形" class="cls-2" width="16.16" height="16.16"/>
    <path id="形状" class="cls-3" d="M2074.07,1222.88h-15.28a1.943,1.943,0,0,0-1.91,1.91v10.58a2.077,2.077,0,0,0,1.91,2.06h15.28a1.943,1.943,0,0,0,1.91-1.91v-10.73A1.943,1.943,0,0,0,2074.07,1222.88Zm-0.29,1.18-6.32,4.85a2,2,0,0,1-2.2,0l-5.88-4.71h14.4v-0.14Zm0.29,12.19h-15.13a1.082,1.082,0,0,1-.88-0.88v-10.58l6.32,5.14a3.374,3.374,0,0,0,1.91.74,3.062,3.062,0,0,0,1.91-.74l6.61-4.99v10.58A0.69,0.69,0,0,1,2074.07,1236.25Z" transform="translate(-2056 -1222)"/>
    <path id="形状-2" data-name="形状" class="cls-3" d="M2070.75,1226.5a6.25,6.25,0,1,1-6.25,6.25A6.252,6.252,0,0,1,2070.75,1226.5Zm1.55,3.75a0.64,0.64,0,0,0-.89,0l-3.98,3.98V1236h1.77l3.98-3.98a0.61,0.61,0,0,0,0-.88Zm1.32-1.32a0.623,0.623,0,0,0-.61-0.17,0.644,0.644,0,0,0-.44.45,0.611,0.611,0,0,0,.17.6l0.88,0.89a0.629,0.629,0,0,0,.89-0.89Z" transform="translate(-2056 -1222)"/>
    <circle id="路径" class="cls-4" cx="14.75" cy="10.75" r="6.25"/>
  </g>
</svg>
