<svg id="问题反馈" xmlns="http://www.w3.org/2000/svg" width="20" height="21" viewBox="0 0 20 21">
  <metadata><?xpacket begin="﻿" id="W5M0MpCehiHzreSzNTczkc9d"?>
<x:xmpmeta xmlns:x="adobe:ns:meta/" x:xmptk="Adobe XMP Core 5.6-c142 79.160924, 2017/07/13-01:06:39        ">
   <rdf:RDF xmlns:rdf="http://www.w3.org/1999/02/22-rdf-syntax-ns#">
      <rdf:Description rdf:about=""/>
   </rdf:RDF>
</x:xmpmeta>
                                                                                                    
                                                                                                    
                                                                                                    
                                                                                                    
                                                                                                    
                                                                                                    
                                                                                                    
                                                                                                    
                                                                                                    
                                                                                                    
                                                                                                    
                                                                                                    
                                                                                                    
                                                                                                    
                                                                                                    
                                                                                                    
                                                                                                    
                                                                                                    
                                                                                                    
                                                                                                    
                           
<?xpacket end="w"?></metadata>
<defs>
    <style>
      .cls-1 {
        opacity: 0;
      }

      .cls-2 {
        fill: #7f7f7f;
        fill-rule: evenodd;
      }
    </style>
  </defs>
  <rect id="矩形" class="cls-1" x="2" width="16" height="16"/>
  <path id="形状" class="cls-2" d="M540,1237.65a8.32,8.32,0,1,1,3.333-6.65,8.281,8.281,0,0,1-3.333,6.65M535,1221a10,10,0,0,0,0,20h0a10,10,0,0,0,0-20m3.331,7.18a3.349,3.349,0,0,0-6.664,0v0.41a0.833,0.833,0,0,0,1.666,0v-0.41a1.7,1.7,0,0,1,3.334,0v1.28a2.053,2.053,0,0,1-1.037,1.54,4.461,4.461,0,0,1-.838.46,0.818,0.818,0,0,0-.625.79v0.97a0.834,0.834,0,0,0,1.667,0v-0.41a4.613,4.613,0,0,0,2.058-1.81,3.046,3.046,0,0,0,.44-1.58v-1.24h0ZM535,1235.17a0.83,0.83,0,1,0,.833.83,0.831,0.831,0,0,0-.833-0.83" transform="translate(-525 -1220)"/>
</svg>
