<svg xmlns="http://www.w3.org/2000/svg" width="21.5" height="22.5" viewBox="0 0 21.5 22.5">
  <metadata><?xpacket begin="﻿" id="W5M0MpCehiHzreSzNTczkc9d"?>
<x:xmpmeta xmlns:x="adobe:ns:meta/" x:xmptk="Adobe XMP Core 5.6-c142 79.160924, 2017/07/13-01:06:39        ">
   <rdf:RDF xmlns:rdf="http://www.w3.org/1999/02/22-rdf-syntax-ns#">
      <rdf:Description rdf:about=""/>
   </rdf:RDF>
</x:xmpmeta>
                                                                                                    
                                                                                                    
                                                                                                    
                                                                                                    
                                                                                                    
                                                                                                    
                                                                                                    
                                                                                                    
                                                                                                    
                                                                                                    
                                                                                                    
                                                                                                    
                                                                                                    
                                                                                                    
                                                                                                    
                                                                                                    
                                                                                                    
                                                                                                    
                                                                                                    
                                                                                                    
                           
<?xpacket end="w"?></metadata>
<defs>
    <style>
      .cls-1 {
        opacity: 0.5;
      }

      .cls-2 {
        opacity: 0;
      }

      .cls-3, .cls-4 {
        fill-rule: evenodd;
      }

      .cls-4 {
        fill: #fff;
      }

      .cls-5 {
        fill: none;
        stroke: #fff;
        stroke-miterlimit: 10;
        stroke-width: 1px;
      }
    </style>
  </defs>
  <g id="密码" class="cls-1">
    <rect id="矩形" class="cls-2" width="20" height="20"/>
    <path id="形状" class="cls-3" d="M2066,1275a5.582,5.582,0,0,0-5.58,5.58v2.19a0.8,0.8,0,0,0,1.48.42v-2.78a3.99,3.99,0,0,1,3.98-3.98h0.22a3.99,3.99,0,0,1,3.98,3.98v2.74a0.812,0.812,0,0,0,.9.4,0.793,0.793,0,0,0,.6-0.78v-2.19A5.582,5.582,0,0,0,2066,1275Zm6.23,7.24h-12.46a2.39,2.39,0,0,0-2.39,2.39v7.98a2.39,2.39,0,0,0,2.39,2.39h12.46a2.39,2.39,0,0,0,2.39-2.39v-7.98A2.39,2.39,0,0,0,2072.23,1282.24Zm1.08,10.48a0.937,0.937,0,0,1-.93.94h-12.76a0.952,0.952,0,0,1-.94-0.94v-8.2a0.952,0.952,0,0,1,.94-0.94h12.76a0.937,0.937,0,0,1,.93.94v8.2Zm-8.02-5.88h1.42v3.57h-1.42v-3.57h0Z" transform="translate(-2056 -1275)"/>
    <circle id="形状-2" data-name="形状" cx="14.75" cy="15.75" r="6.25"/>
    <path id="路径" class="cls-4" d="M2072.3,1288.25a0.64,0.64,0,0,0-.89,0l-3.98,3.98V1294h1.77l3.98-3.98a0.61,0.61,0,0,0,0-.88Z" transform="translate(-2056 -1275)"/>
    <path id="路径-2" data-name="路径" class="cls-4" d="M2073.62,1286.93a0.623,0.623,0,0,0-.61-0.17,0.644,0.644,0,0,0-.44.45,0.611,0.611,0,0,0,.17.6l0.88,0.89a0.629,0.629,0,0,0,.89-0.89Z" transform="translate(-2056 -1275)"/>
    <circle id="路径-3" data-name="路径" class="cls-5" cx="14.75" cy="15.75" r="6.25"/>
  </g>
</svg>
