<svg xmlns="http://www.w3.org/2000/svg" width="20" height="20" viewBox="0 0 20 20">
  <metadata><?xpacket begin="﻿" id="W5M0MpCehiHzreSzNTczkc9d"?>
<x:xmpmeta xmlns:x="adobe:ns:meta/" x:xmptk="Adobe XMP Core 5.6-c142 79.160924, 2017/07/13-01:06:39        ">
   <rdf:RDF xmlns:rdf="http://www.w3.org/1999/02/22-rdf-syntax-ns#">
      <rdf:Description rdf:about=""/>
   </rdf:RDF>
</x:xmpmeta>
                                                                                                    
                                                                                                    
                                                                                                    
                                                                                                    
                                                                                                    
                                                                                                    
                                                                                                    
                                                                                                    
                                                                                                    
                                                                                                    
                                                                                                    
                                                                                                    
                                                                                                    
                                                                                                    
                                                                                                    
                                                                                                    
                                                                                                    
                                                                                                    
                                                                                                    
                                                                                                    
                           
<?xpacket end="w"?></metadata>
<defs>
    <style>
      .cls-1 {
        opacity: 0.5;
      }

      .cls-2 {
        opacity: 0;
      }

      .cls-3 {
        fill-rule: evenodd;
      }
    </style>
  </defs>
  <g id="运力-修改手机号" class="cls-1">
    <rect id="矩形" class="cls-2" width="20" height="20"/>
    <path id="形状" class="cls-3" d="M2069.5,1164a2.5,2.5,0,0,1,2.5,2.5v3.12a0.625,0.625,0,1,1-1.25,0v-2.5a1.876,1.876,0,0,0-1.88-1.87h-8.75a1.874,1.874,0,0,0-1.87,1.87v10.63h4.37a0.625,0.625,0,1,1,0,1.25h-4.37v1.87a1.87,1.87,0,0,0,1.69,1.87l0.18,0.01h2.5a0.625,0.625,0,1,1,0,1.25h-3.12a2.5,2.5,0,0,1-2.5-2.5v-15a2.5,2.5,0,0,1,2.5-2.5h10Zm1.25,7.5a6.25,6.25,0,1,1-6.25,6.25A6.252,6.252,0,0,1,2070.75,1171.5Zm-8.13,8.75a0.625,0.625,0,1,1-.62.62A0.625,0.625,0,0,1,2062.62,1180.25Zm9.68-5a0.64,0.64,0,0,0-.89,0l-3.98,3.98V1181h1.77l3.98-3.98a0.61,0.61,0,0,0,0-.88Zm1.32-1.32a0.623,0.623,0,0,0-.61-0.17,0.644,0.644,0,0,0-.44.45,0.611,0.611,0,0,0,.17.6l0.88,0.89a0.629,0.629,0,0,0,.89-0.89Zm-7.25-7.43a0.625,0.625,0,1,1,0,1.25h-3.75a0.625,0.625,0,0,1,0-1.25h3.75Z" transform="translate(-2057 -1164)"/>
  </g>
</svg>
