<svg id="微信_" data-name="微信 " xmlns="http://www.w3.org/2000/svg" width="20" height="20" viewBox="0 0 20 20">
  <metadata><?xpacket begin="﻿" id="W5M0MpCehiHzreSzNTczkc9d"?>
<x:xmpmeta xmlns:x="adobe:ns:meta/" x:xmptk="Adobe XMP Core 5.6-c142 79.160924, 2017/07/13-01:06:39        ">
   <rdf:RDF xmlns:rdf="http://www.w3.org/1999/02/22-rdf-syntax-ns#">
      <rdf:Description rdf:about=""/>
   </rdf:RDF>
</x:xmpmeta>
                                                                                                    
                                                                                                    
                                                                                                    
                                                                                                    
                                                                                                    
                                                                                                    
                                                                                                    
                                                                                                    
                                                                                                    
                                                                                                    
                                                                                                    
                                                                                                    
                                                                                                    
                                                                                                    
                                                                                                    
                                                                                                    
                                                                                                    
                                                                                                    
                                                                                                    
                                                                                                    
                           
<?xpacket end="w"?></metadata>
<defs>
    <style>
      .cls-1 {
        opacity: 0;
      }

      .cls-2 {
        fill: #7f7f7f;
        stroke: #979797;
        stroke-miterlimit: 10;
        stroke-width: 0.5px;
        fill-rule: evenodd;
      }
    </style>
  </defs>
  <rect id="矩形" class="cls-1" width="20" height="20"/>
  <path id="形状" class="cls-2" d="M2066.9,1338.76a0.825,0.825,0,0,0,0-1.65,0.839,0.839,0,1,0,0,1.65h0Zm-4.6-1.65a0.839,0.839,0,1,0,0,1.65,0.825,0.825,0,0,0,0-1.65h0Zm14.44,6.91c0-2.6-2.41-4.82-5.38-5.05a0.17,0.17,0,0,0,0-.1c-0.59-2.77-3.57-4.85-6.93-4.85-3.79,0-6.87,2.64-6.87,5.89a5.633,5.633,0,0,0,2.57,4.55l-0.58,1.77a0.292,0.292,0,0,0,.08.32,0.318,0.318,0,0,0,.2.08,0.2,0.2,0,0,0,.13-0.04l2.21-1.1,0.27,0.05a9.355,9.355,0,0,0,1.99.27,2.5,2.5,0,0,0,.85-0.15,5.892,5.892,0,0,0,5.57,3.43,7.713,7.713,0,0,0,1.94-.31l1.7,0.94a0.319,0.319,0,0,0,.14.03,0.308,0.308,0,0,0,.19-0.06,0.326,0.326,0,0,0,.1-0.32l-0.44-1.45a5.152,5.152,0,0,0,2.26-3.9h0ZM2065,1345a5.253,5.253,0,0,1-.56.03,8.56,8.56,0,0,1-1.81-.24l-0.36-.08a0.319,0.319,0,0,0-.19.03l-1.59.8,0.41-1.25a0.289,0.289,0,0,0-.11-0.33,4.866,4.866,0,0,1-2.41-4.04c0-2.82,2.72-5.11,6.06-5.11,2.95,0,5.56,1.8,6.1,4.19-3.09.04-5.6,2.21-5.6,4.88a4.225,4.225,0,0,0,.16,1.13c-0.03,0-.06-0.01-0.1-0.01h0Zm8.8,2.4a0.31,0.31,0,0,0-.1.31l0.27,0.9-1.1-.61a0.353,0.353,0,0,0-.14-0.03,0.17,0.17,0,0,0-.07.01,7.527,7.527,0,0,1-1.81.3c-2.77,0-5.03-1.91-5.03-4.25s2.26-4.25,5.03-4.25c2.73,0,5.03,1.94,5.03,4.25a4.439,4.439,0,0,1-2.08,3.37h0Zm-4.76-5.52a0.66,0.66,0,0,0,0,1.32,0.676,0.676,0,1,0,0-1.32h0Zm3.62,0a0.66,0.66,0,0,0,0,1.32,0.676,0.676,0,1,0,0-1.32h0Z" transform="translate(-2057 -1332)"/>
</svg>
