<svg id="图标" xmlns="http://www.w3.org/2000/svg" viewBox="0 0 30 30"><title>画板 31 副本 2</title><g id="图层_36" data-name="图层 36"><path d="M15,0A15,15,0,1,0,30,15,15,15,0,0,0,15,0Zm0,28.56A13.56,13.56,0,1,1,28.56,15,13.57,13.57,0,0,1,15,28.56Z" style="fill:#818181"/><path d="M20.24,22.62h-1v-2H17.73v2h-2v-2h-2v2h-2v-2H10.26v2H9.18a1,1,0,0,1-1-1v-5a1,1,0,0,1,1-1h11a1,1,0,0,1,1,1v5a1,1,0,0,1-.94,1ZM8.18,12.13a1,1,0,0,1,1-1h3.51V7.61a1,1,0,0,1,1-1h2a1,1,0,0,1,1,1v3.48h3.51a1,1,0,0,1,1,1v2.54h-13Zm0,0" style="fill:#22609c"/></g></svg>