<svg id="图标" xmlns="http://www.w3.org/2000/svg" viewBox="0 0 30 30"><title>app图标</title><g id="图层_34" data-name="图层 34"><path d="M15,0A15,15,0,1,0,30,15,15,15,0,0,0,15,0Zm0,28.56A13.56,13.56,0,1,1,28.56,15,13.57,13.57,0,0,1,15,28.56Z" style="fill:#818181"/><path d="M15.16,7.34c-2.67,0-5.35.48-6.32,1.44a5.27,5.27,0,0,0-1.17,3.07s0,.08,0,.12a.63.63,0,0,0,.63.63l2.45-.2h.06a.63.63,0,0,0,.61-.63V10.53a.69.69,0,0,1,.69-.69h6.11a.69.69,0,0,1,.69.69v1.23a.63.63,0,0,0,.61.63h.07l2.45.2a.63.63,0,0,0,.62-.63s0-.12,0-.12a5.21,5.21,0,0,0-1.17-3.07C20.51,7.82,17.83,7.34,15.16,7.34Zm0,8.13a1.25,1.25,0,1,0,1.25,1.25A1.25,1.25,0,0,0,15.16,15.47Zm-.94-2.81v-.78a.78.78,0,1,0-1.56,0v.78l-4.21,4.5A1.56,1.56,0,0,0,8,18.28v1.25a1.25,1.25,0,0,0,1.25,1.25h.32v.78a.78.78,0,0,0,1.56,0v-.78h8.12v.78a.79.79,0,0,0,1.57,0v-.78h.31a1.25,1.25,0,0,0,1.25-1.25V18.28a1.55,1.55,0,0,0-.47-1.12l-4.22-4.5v-.78a.78.78,0,1,0-1.56,0v.78Zm.94,1.56a2.5,2.5,0,1,1-2.5,2.5A2.5,2.5,0,0,1,15.16,14.22Z" style="fill:#22609c"/></g></svg>