<svg id="图标" xmlns="http://www.w3.org/2000/svg" viewBox="0 0 30 30"><title>画板 31 副本</title><g id="图层_36" data-name="图层 36"><path d="M15,0A15,15,0,1,0,30,15,15,15,0,0,0,15,0Zm0,28.56A13.56,13.56,0,1,1,28.56,15,13.57,13.57,0,0,1,15,28.56Z" style="fill:#818181"/><path d="M15.45,22.24A7.38,7.38,0,0,1,8,15a7.38,7.38,0,0,1,7.45-7.24,6.46,6.46,0,0,1,4.34,1.45l-1,1.65a6.27,6.27,0,0,0-3.31-1A5.17,5.17,0,0,0,10.07,15a5.29,5.29,0,0,0,5.38,5.17,6.27,6.27,0,0,0,3.31-1L20,20.79a7.42,7.42,0,0,1-4.55,1.45Zm0,0" style="fill:#22609c"/></g></svg>