<svg id="图标" xmlns="http://www.w3.org/2000/svg" viewBox="0 0 30 30"><title>app图标</title><g id="图层_16" data-name="图层 16"><path d="M15,0A15,15,0,1,0,30,15,15,15,0,0,0,15,0Zm0,28.56A13.56,13.56,0,1,1,28.56,15,13.57,13.57,0,0,1,15,28.56Z" style="fill:#818181"/><path d="M21.54,13.05a1.78,1.78,0,0,0-1.14-1.37v-.1a5.24,5.24,0,1,0-10.48,0v.1a1.75,1.75,0,0,0-1.13,1.37,2.62,2.62,0,0,0,0,5.21A1.74,1.74,0,0,0,12.25,18V13.33a1.76,1.76,0,0,0-1.16-1.65v-.1a4.07,4.07,0,0,1,8.14,0v.1a1.76,1.76,0,0,0-1.16,1.65V18a1.74,1.74,0,0,0,1.16,1.64v1a.58.58,0,0,1-.58.58H15.32v1.16h3.33A1.74,1.74,0,0,0,20.4,20.6v-1a1.75,1.75,0,0,0,1.14-1.36,2.62,2.62,0,0,0,0-5.21ZM7.6,15.65a1.45,1.45,0,0,1,1.16-1.42v2.85A1.46,1.46,0,0,1,7.6,15.65Zm14,1.43V14.23a1.45,1.45,0,0,1,0,2.85Z" style="fill:#22609c"/></g></svg>