<svg id="图标" xmlns="http://www.w3.org/2000/svg" viewBox="0 0 30 30"><title>画板 31 副本 3</title><g id="图层_36" data-name="图层 36"><path d="M15,0A15,15,0,1,0,30,15,15,15,0,0,0,15,0Zm0,28.56A13.56,13.56,0,1,1,28.56,15,13.57,13.57,0,0,1,15,28.56Z" style="fill:#818181"/><path d="M21.87,15a2.9,2.9,0,0,1,1.63-2.47,9,9,0,0,0-.7-1.69,2.71,2.71,0,0,1-2.74-.9,2.65,2.65,0,0,1-.7-2.74,8.71,8.71,0,0,0-1.69-.7A3.19,3.19,0,0,1,15,8.13,3.19,3.19,0,0,1,12.33,6.5a9.07,9.07,0,0,0-1.7.7,2.64,2.64,0,0,1-.69,2.74,2.73,2.73,0,0,1-2.74.9,9,9,0,0,0-.7,1.69A2.91,2.91,0,0,1,8.14,15,3.2,3.2,0,0,1,6.5,17.67a9.07,9.07,0,0,0,.7,1.7,2.64,2.64,0,0,1,2.74.69,2.63,2.63,0,0,1,.69,2.74,9.26,9.26,0,0,0,1.69.7A3.22,3.22,0,0,1,15,21.87a3.22,3.22,0,0,1,2.67,1.63,9,9,0,0,0,1.69-.7,2.64,2.64,0,0,1,.69-2.74,2.74,2.74,0,0,1,2.75-.9,9.69,9.69,0,0,0,.7-1.69A2.9,2.9,0,0,1,21.87,15ZM15,19.35A4.35,4.35,0,1,1,19.35,15,4.35,4.35,0,0,1,15,19.35Zm0,0" style="fill:#22609c"/></g></svg>