<svg id="图标" xmlns="http://www.w3.org/2000/svg" viewBox="0 0 30 30"><title>app图标</title><g id="图层_15" data-name="图层 15"><path d="M21.4,13.52l-5.27,3.53a2,2,0,0,1-2.26,0L8.6,13.52a.67.67,0,0,1,.8-1.07L14.67,16a.73.73,0,0,0,.73,0l5.27-3.54a.66.66,0,0,1,.93.2A.73.73,0,0,1,21.4,13.52ZM20.33,9.65H9.67A2.68,2.68,0,0,0,7,12.32V19a2.67,2.67,0,0,0,2.67,2.66H20.33A2.67,2.67,0,0,0,23,19V12.32A2.68,2.68,0,0,0,20.33,9.65Z" style="fill:#22609c"/><path d="M15,0A15,15,0,1,0,30,15,15,15,0,0,0,15,0Zm0,28.56A13.56,13.56,0,1,1,28.56,15,13.57,13.57,0,0,1,15,28.56Z" style="fill:#818181"/></g></svg>