<svg id="图标" xmlns="http://www.w3.org/2000/svg" viewBox="0 0 30 30"><title>app图标</title><g id="图层_36" data-name="图层 36"><path d="M21,14.39H15.7a.36.36,0,0,1-.36-.36.37.37,0,0,1,.36-.37H21a.37.37,0,0,1,.36.37A.36.36,0,0,1,21,14.39Zm0,2.06H15.7a.36.36,0,0,1,0-.72H21a.36.36,0,1,1,0,.72Zm0,2.07H15.7a.37.37,0,0,1-.36-.37.36.36,0,0,1,.36-.36H21a.36.36,0,0,1,.36.36A.37.37,0,0,1,21,18.52Zm-13.24.53a2.75,2.75,0,0,1,2.74-2.75h1a2.74,2.74,0,0,1,2.74,2.75ZM11,13.13A1.48,1.48,0,1,1,9.53,14.6,1.47,1.47,0,0,1,11,13.13Zm10.2-3.24h-2.5v.74h.36a.44.44,0,0,1,.43.44.43.43,0,0,1-.43.43H17.48a.43.43,0,0,1-.43-.43.44.44,0,0,1,.43-.44h.36V9.89H11.35v.74h.36a.44.44,0,0,1,.43.44.43.43,0,0,1-.43.43H10.12a.43.43,0,0,1-.43-.43.44.44,0,0,1,.43-.44h.36V9.89H8a1.73,1.73,0,0,0-1.73,1.74v7.65A1.72,1.72,0,0,0,8,21H21.21a1.72,1.72,0,0,0,1.73-1.73V11.63A1.73,1.73,0,0,0,21.21,9.89Z" style="fill:#22609c"/><path d="M15,0A15,15,0,1,0,30,15,15,15,0,0,0,15,0Zm0,28.56A13.56,13.56,0,1,1,28.56,15,13.57,13.57,0,0,1,15,28.56Z" style="fill:#818181"/></g></svg>