<?xml version="1.0" standalone="no"?><!DOCTYPE svg PUBLIC "-//W3C//DTD SVG 1.1//EN" "http://www.w3.org/Graphics/SVG/1.1/DTD/svg11.dtd"><svg t="1541576203852" class="icon" style="" viewBox="0 0 1024 1024" version="1.1" xmlns="http://www.w3.org/2000/svg" p-id="2928" xmlns:xlink="http://www.w3.org/1999/xlink" width="128" height="128"><defs><style type="text/css"></style></defs><path d="M921.032 103.275c-25.282-24.639-58.896-38.204-94.65-38.204-35.766 0-69.38 13.565-94.65 38.204l-21.725 21.173-49.476-48.206c-7.16-6.978-18.756-6.978-25.917 0L360.292 343.566c-7.16 6.968-7.16 18.28 0 25.259 3.58 3.489 8.272 5.226 12.965 5.226s9.384-1.739 12.964-5.226l261.345-254.689 36.511 35.583-527.48 514.069c-38.308 37.333-49.354 94.113-28.973 142.2l-47.886 46.694c-9.665 9.419-14.993 21.923-14.993 35.261 0 13.338 5.317 25.854 14.98 35.262 9.665 9.419 22.508 14.611 36.181 14.611 13.648 0 26.492-5.181 36.156-14.589l47.912-46.705c16.203 6.538 33.712 9.943 51.345 9.943 35.729 0 69.307-13.564 94.553-38.178L921.03 287.774c52.19-50.873 52.19-133.637 0.002-184.499zM609.101 273.318l40.029-39.012 137.466 133.971-40.03 39.012-137.465-133.971zM720.65 432.533L365.168 778.954 227.713 644.996l355.469-346.421 137.466 133.96 0.002-0.002zM251.322 850.74c-16.216 0-32.271-3.954-46.434-11.457l-12.024-6.36-66.705 65.033c-5.461 5.323-15.017 5.312-20.515-0.012-2.736-2.667-4.24-6.229-4.24-10.003 0-3.763 1.491-7.312 4.24-9.979l66.717-65.045-6.526-11.718c-20.394-36.571-13.526-82.693 16.68-112.144l19.281-18.791L339.25 804.223l-19.294 18.804c-18.328 17.863-42.705 27.711-68.635 27.711v0.002h0.001z m561.192-507.735L675.047 209.034l82.603-80.502c18.353-17.886 42.766-27.734 68.733-27.734 25.967 0 50.367 9.849 68.733 27.747 37.892 36.929 37.892 97.03 0 133.971l-82.601 80.49-0.001-0.001zM500.19 924.227H375.849c-10.118 0-18.329 8.002-18.329 17.862s8.21 17.863 18.329 17.863H500.19c10.117 0 18.329-8.002 18.329-17.863s-8.212-17.862-18.329-17.862zM902.961 924.227H597.37c-10.118 0-18.329 8.002-18.329 17.862s8.212 17.863 18.329 17.863h305.59c10.117 0 18.329-8.002 18.329-17.863s-8.211-17.862-18.328-17.862z" p-id="2929"></path></svg>