<?xml version="1.0" standalone="no"?><!DOCTYPE svg PUBLIC "-//W3C//DTD SVG 1.1//EN" "http://www.w3.org/Graphics/SVG/1.1/DTD/svg11.dtd"><svg t="1585034610684" class="icon" viewBox="0 0 1024 1024" version="1.1" xmlns="http://www.w3.org/2000/svg" p-id="3397" xmlns:xlink="http://www.w3.org/1999/xlink" width="128" height="128"><defs><style type="text/css"></style></defs><path d="M825.026296 197.665919c-84.033905-84.000136-195.723683-130.261763-314.564325-130.261763-118.836549 0-230.549863 46.261627-314.584792 130.261763-84.071767 84.027765-130.381489 195.799408-130.381489 314.693262 0 118.921483 46.309722 230.659357 130.340557 314.687122 84.041068 84.003206 195.761546 130.260739 314.598094 130.260739 118.836549 0 230.557026-46.257533 314.560232-130.260739 84.099397-84.054371 130.405025-195.827037 130.377396-314.717821C955.400622 393.431557 909.1216 281.693684 825.026296 197.665919zM732.955344 544.280194 542.248931 544.280194l0 191.558827c0 17.654079-14.238282 31.924083-31.78696 31.924083-17.537422 0-31.779797-14.268982-31.779797-31.924083L478.682173 544.280194 287.976784 544.280194c-17.537422 0-31.776727-14.299681-31.776727-31.91999 0-17.626449 14.238282-31.930223 31.776727-31.930223l190.706413 0L478.683197 288.874223c0-17.620309 14.242376-31.91999 31.779797-31.91999 17.551748 0 31.78696 14.299681 31.78696 31.91999l0 191.554734 190.706413 0c17.575284 0 31.776727 14.303774 31.776727 31.930223C764.732072 529.980513 750.530628 544.280194 732.955344 544.280194z" p-id="3398"></path></svg>