<svg id="编组_13备份_2" data-name="编组 13备份 2" xmlns="http://www.w3.org/2000/svg" xmlns:xlink="http://www.w3.org/1999/xlink" width="24" height="24" viewBox="0 0 24 24">
  <metadata><?xpacket begin="﻿" id="W5M0MpCehiHzreSzNTczkc9d"?>
<x:xmpmeta xmlns:x="adobe:ns:meta/" x:xmptk="Adobe XMP Core 5.6-c142 79.160924, 2017/07/13-01:06:39        ">
   <rdf:RDF xmlns:rdf="http://www.w3.org/1999/02/22-rdf-syntax-ns#">
      <rdf:Description rdf:about=""/>
   </rdf:RDF>
</x:xmpmeta>
                                                                                                    
                                                                                                    
                                                                                                    
                                                                                                    
                                                                                                    
                                                                                                    
                                                                                                    
                                                                                                    
                                                                                                    
                                                                                                    
                                                                                                    
                                                                                                    
                                                                                                    
                                                                                                    
                                                                                                    
                                                                                                    
                                                                                                    
                                                                                                    
                                                                                                    
                                                                                                    
                           
<?xpacket end="w"?></metadata>
<defs>
    <style>
      .cls-1 {
        fill-opacity: 0.85;
        fill: url(#linear-gradient);
      }

      .cls-2 {
        opacity: 0;
      }

      .cls-3 {
        fill: #fff;
        fill-rule: evenodd;
      }
    </style>
    <linearGradient id="linear-gradient" x1="24" y1="24" x2="0" gradientUnits="userSpaceOnUse">
      <stop offset="NaN" stop-color="#5d9cec"/>
      <stop offset="Infinity" stop-color="#0e65d7"/>
    </linearGradient>
  </defs>
  <rect id="矩形" class="cls-1" width="24" height="24" rx="8" ry="8"/>
  <g id="_4_高层次人才补贴" data-name="4、高层次人才补贴">
    <rect id="矩形-2" data-name="矩形" class="cls-2" x="4" y="4" width="16" height="16"/>
    <path id="形状" class="cls-3" d="M28.181,4240.01a0.357,0.357,0,0,1-.327.03l-6.425-2.69h0l5.728-2.57h0a1.758,1.758,0,0,1,.571-0.16,2.872,2.872,0,0,1,.664.18l6.164,2.04h0l-6.374,3.17h0Zm3.809,3.54a0.721,0.721,0,0,1-.093.35h0c-0.43.73-1.9,1.48-3.9,1.48-2.044,0-3.5-.74-3.885-1.46l0-.01a0.953,0.953,0,0,1-.1-0.43v-3.95h0l3.5,1.47,0.077,0.03a2.151,2.151,0,0,0,.408.05,1.524,1.524,0,0,0,.6-0.14l3.39-1.69h0v4.3Zm3.491-7.47-7.277-2.41a1.634,1.634,0,0,0-1.072.04,2.823,2.823,0,0,0-.276.1l-6.535,2.92a0.481,0.481,0,0,0-.256.26,0.823,0.823,0,0,0-.012.62,0.759,0.759,0,0,0,.429.44l2.525,1.06h0v4.69a3.91,3.91,0,0,0,.223.6c0.631,1.2,2.548,2,4.768,2,2.158,0,4.07-.8,4.756-1.98,0.041-.07.106-0.2,0.175-0.33a0.486,0.486,0,0,0,.058-0.24l0-5.1h0l0.847-.42h0v3.75a0.518,0.518,0,0,0,.484.52,0.541,0.541,0,0,0,.366-0.14,0.518,0.518,0,0,0,.15-0.37v-4.26h0l0.852-.42a0.544,0.544,0,0,0,.239-0.26,0.813,0.813,0,0,0-.454-1.07h0Zm-1.138,7.37a0.534,0.534,0,0,0-.356.16,0.484,0.484,0,0,0-.144.35v1.01a0.5,0.5,0,1,0,1,0v-1.01a0.481,0.481,0,0,0-.144-0.35,0.534,0.534,0,0,0-.356-0.16" transform="translate(-16 -4228)"/>
  </g>
</svg>
