<?xml version="1.0" standalone="no"?><!DOCTYPE svg PUBLIC "-//W3C//DTD SVG 1.1//EN" "http://www.w3.org/Graphics/SVG/1.1/DTD/svg11.dtd"><svg t="1585034315568" class="icon" viewBox="0 0 1024 1024" version="1.1" xmlns="http://www.w3.org/2000/svg" p-id="2659" xmlns:xlink="http://www.w3.org/1999/xlink" width="128" height="128"><defs><style type="text/css"></style></defs><path d="M29.696 512c0 266.24 215.552 482.304 482.304 482.304S994.304 778.752 994.304 512v-0.512c0-266.24-216.064-482.304-482.304-482.304S29.696 245.248 29.696 512z" p-id="2660"></path><path d="M544.256 512l168.448-168.448c8.704-8.704 8.704-22.528 0-31.232l-1.024-1.024c-8.704-8.704-22.528-8.704-31.232 0L512 480.256l-168.448-168.96c-8.704-8.704-22.528-8.704-31.232 0l-1.024 1.024c-8.704 8.704-8.704 22.528 0 31.232l168.448 168.96L311.296 680.96c-8.704 8.704-8.704 22.528 0 31.232l1.024 1.024c8.704 8.704 22.528 8.704 31.232 0L512 544.768l168.448 168.448c8.704 8.704 22.528 8.704 31.232 0l1.024-1.024c8.704-8.704 8.704-22.528 0-31.232L544.256 512z" fill="#FFFFFF" p-id="2661"></path></svg>