<svg id="编组_13备份_2" data-name="编组 13备份 2" xmlns="http://www.w3.org/2000/svg" xmlns:xlink="http://www.w3.org/1999/xlink" width="24" height="24" viewBox="0 0 24 24">
  <metadata><?xpacket begin="﻿" id="W5M0MpCehiHzreSzNTczkc9d"?>
<x:xmpmeta xmlns:x="adobe:ns:meta/" x:xmptk="Adobe XMP Core 5.6-c142 79.160924, 2017/07/13-01:06:39        ">
   <rdf:RDF xmlns:rdf="http://www.w3.org/1999/02/22-rdf-syntax-ns#">
      <rdf:Description rdf:about=""/>
   </rdf:RDF>
</x:xmpmeta>
                                                                                                    
                                                                                                    
                                                                                                    
                                                                                                    
                                                                                                    
                                                                                                    
                                                                                                    
                                                                                                    
                                                                                                    
                                                                                                    
                                                                                                    
                                                                                                    
                                                                                                    
                                                                                                    
                                                                                                    
                                                                                                    
                                                                                                    
                                                                                                    
                                                                                                    
                                                                                                    
                           
<?xpacket end="w"?></metadata>
<defs>
    <style>
      .cls-1 {
        fill-opacity: 0.85;
        fill: url(#linear-gradient);
      }

      .cls-2, .cls-3 {
        fill-rule: evenodd;
      }

      .cls-2 {
        opacity: 0;
      }

      .cls-3 {
        fill: #fff;
      }
    </style>
    <linearGradient id="linear-gradient" x1="24" y1="24" x2="0" gradientUnits="userSpaceOnUse">
      <stop offset="NaN" stop-color="#a0d468"/>
      <stop offset="Infinity" stop-color="#6eaf27"/>
    </linearGradient>
  </defs>
  <rect id="矩形" class="cls-1" width="24" height="24" rx="8" ry="8"/>
  <g id="单位">
    <path id="矩形-2" data-name="矩形" class="cls-2" d="M20,4455H35.618v15.62H20V4455Z" transform="translate(-16 -4452)"/>
    <path id="形状" class="cls-3" d="M35.607,4469.85H34.846v-7.24a0.761,0.761,0,0,0-.761-0.76H30.278v0.76H33.7a0.381,0.381,0,0,1,.381.38v6.48a0.381,0.381,0,0,1-.381.38H29.135V4456.9a0.76,0.76,0,0,0-.761-0.76h-5.71a0.76,0.76,0,0,0-.761.76v12.95H21.142a0.38,0.38,0,1,0,0,.76H35.607A0.38,0.38,0,1,0,35.607,4469.85Zm-7.233,0h-5.71v-12.57a0.38,0.38,0,0,1,.381-0.38h4.949a0.38,0.38,0,0,1,.381.38v12.57h0Zm-4.568-8h1.142v-1.14H23.807v1.14Zm0-2.28h1.142v-1.14H23.807v1.14Zm2.284,2.28h1.142v-1.14H26.091v1.14Zm0-2.28h1.142v-1.14H26.091v1.14Z" transform="translate(-16 -4452)"/>
  </g>
</svg>
