<svg id="编组_13备份" data-name="编组 13备份" xmlns="http://www.w3.org/2000/svg" xmlns:xlink="http://www.w3.org/1999/xlink" width="24" height="24" viewBox="0 0 24 24">
  <metadata><?xpacket begin="﻿" id="W5M0MpCehiHzreSzNTczkc9d"?>
<x:xmpmeta xmlns:x="adobe:ns:meta/" x:xmptk="Adobe XMP Core 5.6-c142 79.160924, 2017/07/13-01:06:39        ">
   <rdf:RDF xmlns:rdf="http://www.w3.org/1999/02/22-rdf-syntax-ns#">
      <rdf:Description rdf:about=""/>
   </rdf:RDF>
</x:xmpmeta>
                                                                                                    
                                                                                                    
                                                                                                    
                                                                                                    
                                                                                                    
                                                                                                    
                                                                                                    
                                                                                                    
                                                                                                    
                                                                                                    
                                                                                                    
                                                                                                    
                                                                                                    
                                                                                                    
                                                                                                    
                                                                                                    
                                                                                                    
                                                                                                    
                                                                                                    
                                                                                                    
                           
<?xpacket end="w"?></metadata>
<defs>
    <style>
      .cls-1 {
        fill-opacity: 0.85;
        fill: url(#linear-gradient);
      }

      .cls-2 {
        opacity: 0;
      }

      .cls-3 {
        fill: #fff;
        fill-rule: evenodd;
      }
    </style>
    <linearGradient id="linear-gradient" x1="24" y1="24" x2="0" gradientUnits="userSpaceOnUse">
      <stop offset="NaN" stop-color="#fc6e51"/>
      <stop offset="Infinity" stop-color="#db391f"/>
    </linearGradient>
  </defs>
  <rect id="矩形" class="cls-1" width="24" height="24" rx="8" ry="8"/>
  <g id="年度">
    <rect id="矩形-2" data-name="矩形" class="cls-2" x="5" y="4" width="15" height="15"/>
    <path id="形状" class="cls-3" d="M23.058,4345.88a1.082,1.082,0,0,0-1.122,1.12v10.02a1.063,1.063,0,0,0,1.122,1.03H34.006a1.141,1.141,0,0,0,1.124-1.13V4347a1.222,1.222,0,0,0-1.216-1.12H23.058Zm10.855,13.1H23.057A2.08,2.08,0,0,1,21,4356.92V4347a2.08,2.08,0,0,1,2.058-2.06H34.006a2.064,2.064,0,0,1,1.966,2.06v10.02a2.056,2.056,0,0,1-2.059,1.96h0Z" transform="translate(-16 -4340)"/>
    <path id="形状-2" data-name="形状" class="cls-3" d="M25.117,4347.75a0.5,0.5,0,0,1-.468-0.47v-2.8a0.468,0.468,0,1,1,.936,0v2.8a0.439,0.439,0,0,1-.468.47m6.55,0a0.439,0.439,0,0,1-.468-0.47v-2.8a0.468,0.468,0,1,1,.936,0v2.8a0.439,0.439,0,0,1-.468.47m-5.82,1.51a3.114,3.114,0,0,1-.735.9,5.068,5.068,0,0,1-1.217.79l-0.02.01v0.88l0.049-.01a5.818,5.818,0,0,0,.886-0.44,4.669,4.669,0,0,0,.737-0.52v5.28h0.909v-6.91h-0.6Zm3.835,6.01a2.839,2.839,0,0,1,.313-0.39c0.142-.15.465-0.43,0.963-0.85a12.819,12.819,0,0,0,1.295-1.21,3.053,3.053,0,0,0,.56-0.84,2.074,2.074,0,0,0,.171-0.81,1.835,1.835,0,0,0-.584-1.38,2.188,2.188,0,0,0-1.577-.55,2.312,2.312,0,0,0-1.571.51,2.15,2.15,0,0,0-.676,1.49l0,0.04,0.935,0.09v-0.04a1.331,1.331,0,0,1,.357-0.97,1.258,1.258,0,0,1,.941-0.36,1.288,1.288,0,0,1,.9.33,1.1,1.1,0,0,1,.346.82,1.689,1.689,0,0,1-.383.98,9.226,9.226,0,0,1-1.5,1.44,9.431,9.431,0,0,0-1.1,1.03,3.107,3.107,0,0,0-.556.92,1.541,1.541,0,0,0-.1.6v0.03h4.576v-0.88H29.683Z" transform="translate(-16 -4340)"/>
  </g>
</svg>
