<svg xmlns="http://www.w3.org/2000/svg" width="17.562" height="20.91" viewBox="0 0 17.562 20.91">
  <metadata><?xpacket begin="﻿" id="W5M0MpCehiHzreSzNTczkc9d"?>
<x:xmpmeta xmlns:x="adobe:ns:meta/" x:xmptk="Adobe XMP Core 5.6-c142 79.160924, 2017/07/13-01:06:39        ">
   <rdf:RDF xmlns:rdf="http://www.w3.org/1999/02/22-rdf-syntax-ns#">
      <rdf:Description rdf:about=""/>
   </rdf:RDF>
</x:xmpmeta>
                                                                                                    
                                                                                                    
                                                                                                    
                                                                                                    
                                                                                                    
                                                                                                    
                                                                                                    
                                                                                                    
                                                                                                    
                                                                                                    
                                                                                                    
                                                                                                    
                                                                                                    
                                                                                                    
                                                                                                    
                                                                                                    
                                                                                                    
                                                                                                    
                                                                                                    
                                                                                                    
                           
<?xpacket end="w"?></metadata>
<defs>
    <style>
      .cls-1 {
        fill: #fff;
        fill-rule: evenodd;
      }
    </style>
  </defs>
  <path id="形状" class="cls-1" d="M332.121,3896.18l-7.777,13.49a0.9,0.9,0,0,0-.132.44l0.044,3.43a0.893,0.893,0,0,0,1.319.75l2.988-1.67a1.248,1.248,0,0,0,.351-0.31l7.777-13.49Zm5.011,1.85-4.527-2.64,0.835-1.49a0.862,0.862,0,0,1,1.231-.31l3.031,1.76a0.836,0.836,0,0,1,.407.52,0.85,0.85,0,0,1-.1.66ZM333,3911.78a0.884,0.884,0,0,1,.879-0.88h7.031a0.88,0.88,0,0,1,0,1.76h-7.031a0.878,0.878,0,0,1-.879-0.88h0Zm2.636-3.51a0.878,0.878,0,0,1,.879-0.88h4.4a0.88,0.88,0,0,1,0,1.76h-4.4a0.885,0.885,0,0,1-.879-0.88h0Z" transform="translate(-324.219 -3893.47)"/>
</svg>
