<svg id="编组_13备份_2" data-name="编组 13备份 2" xmlns="http://www.w3.org/2000/svg" xmlns:xlink="http://www.w3.org/1999/xlink" width="24" height="24" viewBox="0 0 24 24">
  <metadata><?xpacket begin="﻿" id="W5M0MpCehiHzreSzNTczkc9d"?>
<x:xmpmeta xmlns:x="adobe:ns:meta/" x:xmptk="Adobe XMP Core 5.6-c142 79.160924, 2017/07/13-01:06:39        ">
   <rdf:RDF xmlns:rdf="http://www.w3.org/1999/02/22-rdf-syntax-ns#">
      <rdf:Description rdf:about=""/>
   </rdf:RDF>
</x:xmpmeta>
                                                                                                    
                                                                                                    
                                                                                                    
                                                                                                    
                                                                                                    
                                                                                                    
                                                                                                    
                                                                                                    
                                                                                                    
                                                                                                    
                                                                                                    
                                                                                                    
                                                                                                    
                                                                                                    
                                                                                                    
                                                                                                    
                                                                                                    
                                                                                                    
                                                                                                    
                                                                                                    
                           
<?xpacket end="w"?></metadata>
<defs>
    <style>
      .cls-1 {
        fill-opacity: 0.85;
        fill: url(#linear-gradient);
      }

      .cls-2 {
        opacity: 0;
      }

      .cls-3 {
        fill: #fff;
        fill-rule: evenodd;
      }
    </style>
    <linearGradient id="linear-gradient" x1="24" y1="24" x2="0" gradientUnits="userSpaceOnUse">
      <stop offset="NaN" stop-color="#a0d468"/>
      <stop offset="Infinity" stop-color="#6eaf27"/>
    </linearGradient>
  </defs>
  <rect id="矩形" class="cls-1" width="24" height="24" rx="8" ry="8"/>
  <g id="_7_学制" data-name="7 学制">
    <rect id="矩形-2" data-name="矩形" class="cls-2" x="4" y="4" width="16" height="16"/>
    <path id="形状" class="cls-3" d="M34.533,4293.24a7.72,7.72,0,0,0-1.511-2.26,6.841,6.841,0,0,0-2.267-1.51,6.836,6.836,0,0,0-5.511,0,7.716,7.716,0,0,0-2.267,1.51,6.938,6.938,0,0,0-1.511,2.26,6.883,6.883,0,0,0,0,5.52,7.719,7.719,0,0,0,1.511,2.26,6.85,6.85,0,0,0,2.267,1.51,7.381,7.381,0,0,0,2.756.58,6.388,6.388,0,0,0,2.756-.58,7.705,7.705,0,0,0,2.267-1.51,6.939,6.939,0,0,0,1.511-2.26,7.506,7.506,0,0,0,.578-2.76A6.417,6.417,0,0,0,34.533,4293.24Zm-1.911,6.89-0.8-.8-0.489.49,0.8,0.8a6.294,6.294,0,0,1-3.778,1.56v-1.16H27.644v1.16a6.409,6.409,0,0,1-3.778-1.56l0.8-.8-0.489-.49-0.8.8a6.279,6.279,0,0,1-1.556-3.77h1.156v-0.72H21.822a6.382,6.382,0,0,1,1.556-3.77l0.8,0.8,0.489-.49-0.8-.8a6.212,6.212,0,0,1,8.267-.05l-0.8.8,0.489,0.49,0.8-.8a6.281,6.281,0,0,1,1.555,3.78H33.022v0.71h1.155a5.812,5.812,0,0,1-1.555,3.82h0Zm-4.667-7.77a0.681,0.681,0,0,0-.667.48v3.47a0.7,0.7,0,0,0,1.334,0v-3.47a0.685,0.685,0,0,0-.667-0.48h0Z" transform="translate(-16 -4284)"/>
  </g>
</svg>
