<svg id="编组_13备份_2" data-name="编组 13备份 2" xmlns="http://www.w3.org/2000/svg" xmlns:xlink="http://www.w3.org/1999/xlink" width="24" height="24" viewBox="0 0 24 24">
  <metadata><?xpacket begin="﻿" id="W5M0MpCehiHzreSzNTczkc9d"?>
<x:xmpmeta xmlns:x="adobe:ns:meta/" x:xmptk="Adobe XMP Core 5.6-c142 79.160924, 2017/07/13-01:06:39        ">
   <rdf:RDF xmlns:rdf="http://www.w3.org/1999/02/22-rdf-syntax-ns#">
      <rdf:Description rdf:about=""/>
   </rdf:RDF>
</x:xmpmeta>
                                                                                                    
                                                                                                    
                                                                                                    
                                                                                                    
                                                                                                    
                                                                                                    
                                                                                                    
                                                                                                    
                                                                                                    
                                                                                                    
                                                                                                    
                                                                                                    
                                                                                                    
                                                                                                    
                                                                                                    
                                                                                                    
                                                                                                    
                                                                                                    
                                                                                                    
                                                                                                    
                           
<?xpacket end="w"?></metadata>
<defs>
    <style>
      .cls-1 {
        fill-opacity: 0.85;
        fill: url(#linear-gradient);
      }

      .cls-2 {
        opacity: 0;
      }

      .cls-3 {
        fill: #fff;
        fill-rule: evenodd;
      }
    </style>
    <linearGradient id="linear-gradient" x1="24" y1="24" x2="0" gradientUnits="userSpaceOnUse">
      <stop offset="NaN" stop-color="#5d9cec"/>
      <stop offset="Infinity" stop-color="#0e65d7"/>
    </linearGradient>
  </defs>
  <rect id="矩形" class="cls-1" width="24" height="24" rx="8" ry="8"/>
  <g id="mail">
    <rect id="矩形-2" data-name="矩形" class="cls-2" x="4" y="4" width="16" height="16"/>
    <path id="形状" class="cls-3" d="M34.5,4066.5h-13a0.5,0.5,0,0,0-.5.5v10a0.5,0.5,0,0,0,.5.5h13a0.5,0.5,0,0,0,.5-0.5v-10A0.5,0.5,0,0,0,34.5,4066.5Zm-0.625,1.73v8.14H22.125v-8.14l-0.431-.33,0.614-.79,0.669,0.52H33.025l0.669-.52,0.614,0.79-0.433.33h0Zm-0.85-.61L28,4071.53l-5.025-3.91-0.669-.52-0.614.79,0.431,0.34,5.338,4.15a0.89,0.89,0,0,0,1.074,0l5.341-4.15,0.431-.33-0.614-.79Z" transform="translate(-16 -4060)"/>
  </g>
</svg>
