<?xml version="1.0" standalone="no"?><!DOCTYPE svg PUBLIC "-//W3C//DTD SVG 1.1//EN" "http://www.w3.org/Graphics/SVG/1.1/DTD/svg11.dtd"><svg t="1584426221654" class="icon" viewBox="0 0 1024 1024" version="1.1" xmlns="http://www.w3.org/2000/svg" p-id="5794" xmlns:xlink="http://www.w3.org/1999/xlink" width="128" height="128"><defs><style type="text/css"></style></defs><path d="M512 0a512 512 0 0 1 0 1024H0V512A512 512 0 0 1 512 0z" fill="#F87FB5" p-id="5795"></path><path d="M541.354667 296.413867a182.545067 182.545067 0 0 0-182.408534 182.408533A182.613333 182.613333 0 0 0 541.354667 661.2992c100.5568 0 182.4768-81.92 182.4768-182.4768 0-100.625067-81.92-182.408533-182.4768-182.408533z m0 442.709333c-64.170667 0-122.811733-23.415467-168.277334-62.0544l-37.4784 37.546667 61.44 61.508266-54.954666 54.954667-61.44-61.576533-71.338667 71.338666-55.0912-55.022933 71.2704-71.2704-65.058133-65.1264 55.0912-54.954667 64.989866 65.1264 41.3696-41.3696a258.730667 258.730667 0 0 1-40.823466-139.332266 260.5056 260.5056 0 0 1 260.232533-260.3008 260.5056 260.5056 0 0 1 260.3008 260.3008 260.573867 260.573867 0 0 1-260.232533 260.232533z" fill="#FFFFFF" p-id="5796"></path></svg>