<?xml version="1.0" standalone="no"?><!DOCTYPE svg PUBLIC "-//W3C//DTD SVG 1.1//EN" "http://www.w3.org/Graphics/SVG/1.1/DTD/svg11.dtd"><svg t="1584426393122" class="icon" viewBox="0 0 1024 1024" version="1.1" xmlns="http://www.w3.org/2000/svg" p-id="6575" xmlns:xlink="http://www.w3.org/1999/xlink" width="128" height="128"><defs><style type="text/css"></style></defs><path d="M512 0a512 512 0 0 1 0 1024H0V512A512 512 0 0 1 512 0z" fill="#31D4F6" p-id="6576"></path><path d="M708.539733 273.066667H596.650667V204.8h238.933333v238.933333h-68.266667V324.266667l-41.506133 41.506133-41.3696 41.301333a258.730667 258.730667 0 0 1 40.891733 139.400534 260.5056 260.5056 0 0 1-260.3008 260.232533A260.5056 260.5056 0 0 1 204.8 546.474667a260.573867 260.573867 0 0 1 260.232533-260.232534c64.170667 0 122.88 23.415467 168.277334 61.986134l92.501333-92.433067L708.608 273.066667z m-243.5072 455.816533a182.545067 182.545067 0 0 0 182.4768-182.408533 182.613333 182.613333 0 0 0-182.4768-182.408534A182.6816 182.6816 0 0 0 282.624 546.474667c0 100.625067 81.92 182.408533 182.408533 182.408533z" fill="#FFFFFF" p-id="6577"></path></svg>