<svg id="图层_1" data-name="图层 1" xmlns="http://www.w3.org/2000/svg" viewBox="0 0 22 22"><title>奖章22px</title><path d="M19,8.55a7.91,7.91,0,1,0-7.92,8,8,8,0,0,0,7.92-8ZM15.1,8.23,13.55,9.78,13.92,12c.12.74-.3,1.06-.95.71l-1.93-1-1.93,1C8.47,13,8,12.71,8.17,12l.37-2.17L7,8.23c-.53-.52-.38-1,.35-1.13L9.5,6.78l1-2c.32-.66.84-.67,1.16,0l1,2,2.16.32c.72.1.89.6.35,1.13Zm3.78,12.08L16.63,15.7a9.12,9.12,0,0,1-5.13,2.06l1.5,3a.57.57,0,0,0,.54.43h4.89a.57.57,0,0,0,.57-.56h0a.63.63,0,0,0-.12-.33Zm-15.77,0a.55.55,0,0,0-.11.33.57.57,0,0,0,.55.57H8.46A.56.56,0,0,0,9,20.78l1.51-3A9.15,9.15,0,0,1,5.36,15.7Zm0,0" style="fill:#f7931e"/><rect x="3" y="0.76" width="16" height="20.48" style="fill:none"/></svg>