<svg id="编组_13备份" data-name="编组 13备份" xmlns="http://www.w3.org/2000/svg" xmlns:xlink="http://www.w3.org/1999/xlink" width="24" height="24" viewBox="0 0 24 24">
  <metadata><?xpacket begin="﻿" id="W5M0MpCehiHzreSzNTczkc9d"?>
<x:xmpmeta xmlns:x="adobe:ns:meta/" x:xmptk="Adobe XMP Core 5.6-c142 79.160924, 2017/07/13-01:06:39        ">
   <rdf:RDF xmlns:rdf="http://www.w3.org/1999/02/22-rdf-syntax-ns#">
      <rdf:Description rdf:about=""/>
   </rdf:RDF>
</x:xmpmeta>
                                                                                                    
                                                                                                    
                                                                                                    
                                                                                                    
                                                                                                    
                                                                                                    
                                                                                                    
                                                                                                    
                                                                                                    
                                                                                                    
                                                                                                    
                                                                                                    
                                                                                                    
                                                                                                    
                                                                                                    
                                                                                                    
                                                                                                    
                                                                                                    
                                                                                                    
                                                                                                    
                           
<?xpacket end="w"?></metadata>
<defs>
    <style>
      .cls-1 {
        fill-opacity: 0.85;
        fill: url(#linear-gradient);
      }

      .cls-2 {
        opacity: 0;
      }

      .cls-3 {
        fill: #fff;
        fill-rule: evenodd;
      }
    </style>
    <linearGradient id="linear-gradient" x1="24" y1="24" x2="0" gradientUnits="userSpaceOnUse">
      <stop offset="NaN" stop-color="#fc6e51"/>
      <stop offset="Infinity" stop-color="#db391f"/>
    </linearGradient>
  </defs>
  <rect id="矩形" class="cls-1" width="24" height="24" rx="8" ry="8"/>
  <g id="民族">
    <rect id="矩形-2" data-name="矩形" class="cls-2" x="1" y="1" width="21" height="21"/>
    <path id="形状" class="cls-3" d="M35.165,4186.16l-1.848-.99-0.808-.46c1.05-1.88,1.228-2.66,1.145-3.81a3.372,3.372,0,0,0-3.539-3.27,3.305,3.305,0,0,0-3.349,3.44,4.9,4.9,0,0,0,1.218,3.61l-2.278,1.2a3.157,3.157,0,0,0-1.921,2.92,1.074,1.074,0,0,0,1.281,1.18h10.5c0.609,0,1.05-.17,1.05-0.82a3,3,0,0,0-1.449-3h0Zm0.4,2.77h-10.5a1.5,1.5,0,0,1,.641-1.97c0.808-.44,1.544-0.79,2.3-1.22,0.977-.56,1.05-1.17.409-2.1a3.887,3.887,0,0,1-.5-3.66,2.383,2.383,0,0,1,2.678-1.42,2.253,2.253,0,0,1,2.1,2.03,4.208,4.208,0,0,1-.787,3.28,1.048,1.048,0,0,0,.284,1.73c0.788,0.48,1.606.9,2.415,1.34a1.718,1.718,0,0,1,.966,1.99h0Zm-13.734-3.28c0.661-.34,1.323-0.69,1.963-1.05a1.029,1.029,0,0,0,.357-1.66,3.558,3.558,0,0,1-.7-2.42c0-1.42,1.229-2.17,2.667-2.1,0.525-.15.893-0.88-0.136-1.05a2.839,2.839,0,0,0-2.594.88c-1.512,1.8-1.05,3.63.063,5.45-0.872.5-1.764,0.95-2.583,1.5s-1.05,1.23-1.05,2.7a1.05,1.05,0,0,0,1.05,1.05h2.1v-1.05h-2.1A2.107,2.107,0,0,1,21.83,4185.65Z" transform="translate(-16 -4172)"/>
  </g>
</svg>
