<svg id="编组_13备份_2" data-name="编组 13备份 2" xmlns="http://www.w3.org/2000/svg" xmlns:xlink="http://www.w3.org/1999/xlink" width="24" height="24" viewBox="0 0 24 24">
  <metadata><?xpacket begin="﻿" id="W5M0MpCehiHzreSzNTczkc9d"?>
<x:xmpmeta xmlns:x="adobe:ns:meta/" x:xmptk="Adobe XMP Core 5.6-c142 79.160924, 2017/07/13-01:06:39        ">
   <rdf:RDF xmlns:rdf="http://www.w3.org/1999/02/22-rdf-syntax-ns#">
      <rdf:Description rdf:about=""/>
   </rdf:RDF>
</x:xmpmeta>
                                                                                                    
                                                                                                    
                                                                                                    
                                                                                                    
                                                                                                    
                                                                                                    
                                                                                                    
                                                                                                    
                                                                                                    
                                                                                                    
                                                                                                    
                                                                                                    
                                                                                                    
                                                                                                    
                                                                                                    
                                                                                                    
                                                                                                    
                                                                                                    
                                                                                                    
                                                                                                    
                           
<?xpacket end="w"?></metadata>
<defs>
    <style>
      .cls-1 {
        fill-opacity: 0.85;
        fill: url(#linear-gradient);
      }

      .cls-2 {
        opacity: 0;
      }

      .cls-3 {
        fill: #fff;
        fill-rule: evenodd;
      }
    </style>
    <linearGradient id="linear-gradient" x1="24" y1="24" x2="0" gradientUnits="userSpaceOnUse">
      <stop offset="NaN" stop-color="#a0d468"/>
      <stop offset="Infinity" stop-color="#6eaf27"/>
    </linearGradient>
  </defs>
  <rect id="矩形" class="cls-1" width="24" height="24" rx="8" ry="8"/>
  <g id="phone">
    <rect id="矩形-2" data-name="矩形" class="cls-2" x="4" y="4" width="16" height="16"/>
    <path id="形状" class="cls-3" d="M33.7,4123.73l-1.664-1.66a1.069,1.069,0,0,0-1.525,0l-1.792,1.79a1.069,1.069,0,0,0,0,1.52l1.4,1.41a6.49,6.49,0,0,1-3.337,3.34l-1.4-1.4a1.068,1.068,0,0,0-1.525,0l-1.794,1.79a1.07,1.07,0,0,0,0,1.52l1.662,1.67a1.9,1.9,0,0,0,1.316.54,2.99,2.99,0,0,0,.3-0.02,11.35,11.35,0,0,0,8.88-8.88A1.866,1.866,0,0,0,33.7,4123.73Zm-0.588,1.43a9.709,9.709,0,0,1-2.787,5.17,9.767,9.767,0,0,1-5.17,2.79,0.727,0.727,0,0,1-.637-0.21l-1.633-1.63,1.731-1.73,1.872,1.87,0.014,0.02,0.338-.13a7.51,7.51,0,0,0,4.464-4.46l0.125-.34-1.887-1.89,1.731-1.73,1.633,1.63A0.738,0.738,0,0,1,33.117,4125.16Z" transform="translate(-16 -4116)"/>
  </g>
</svg>
