<svg id="手机" xmlns="http://www.w3.org/2000/svg" width="40" height="40" viewBox="0 0 40 40">
  <metadata><?xpacket begin="﻿" id="W5M0MpCehiHzreSzNTczkc9d"?>
<x:xmpmeta xmlns:x="adobe:ns:meta/" x:xmptk="Adobe XMP Core 5.6-c142 79.160924, 2017/07/13-01:06:39        ">
   <rdf:RDF xmlns:rdf="http://www.w3.org/1999/02/22-rdf-syntax-ns#">
      <rdf:Description rdf:about=""/>
   </rdf:RDF>
</x:xmpmeta>
                                                                                                    
                                                                                                    
                                                                                                    
                                                                                                    
                                                                                                    
                                                                                                    
                                                                                                    
                                                                                                    
                                                                                                    
                                                                                                    
                                                                                                    
                                                                                                    
                                                                                                    
                                                                                                    
                                                                                                    
                                                                                                    
                                                                                                    
                                                                                                    
                                                                                                    
                                                                                                    
                           
<?xpacket end="w"?></metadata>
<defs>
    <style>
      .cls-1 {
        opacity: 0;
      }

      .cls-2 {
        fill: #fff;
        fill-rule: evenodd;
      }
    </style>
  </defs>
  <rect id="矩形" class="cls-1" width="40" height="40"/>
  <path id="形状" class="cls-2" d="M3174.92,3246.44h-9.81a2.8,2.8,0,0,0-2.8,2.8v17.52a2.8,2.8,0,0,0,2.8,2.8h9.81a2.8,2.8,0,0,0,2.8-2.8v-17.52a2.8,2.8,0,0,0-2.8-2.8h0Zm-6.01,2.15h2.21a0.324,0.324,0,0,1,.33.32,0.335,0.335,0,0,1-.33.34h-2.21a0.337,0.337,0,0,1-.34-0.34A0.333,0.333,0,0,1,3168.91,3248.59Zm1.1,19.22a1.21,1.21,0,1,1,1.21-1.21,1.189,1.189,0,0,1-1.21,1.21h0Zm6.53-3.82h-13.08v-13.3h13.06v13.3h0.02Z" transform="translate(-3150 -3238)"/>
  <path id="形状-2" data-name="形状" class="cls-2" d="M3170.06,3238.81a19.28,19.28,0,1,0,19.31,19.25A19.367,19.367,0,0,0,3170.06,3238.81Zm0,37.31a18.06,18.06,0,1,1,18.06-18.06A18.053,18.053,0,0,1,3170.06,3276.12Z" transform="translate(-3150 -3238)"/>
</svg>
