<svg xmlns="http://www.w3.org/2000/svg" width="18" height="18" viewBox="0 0 18 18">
  <metadata><?xpacket begin="﻿" id="W5M0MpCehiHzreSzNTczkc9d"?>
<x:xmpmeta xmlns:x="adobe:ns:meta/" x:xmptk="Adobe XMP Core 5.6-c142 79.160924, 2017/07/13-01:06:39        ">
   <rdf:RDF xmlns:rdf="http://www.w3.org/1999/02/22-rdf-syntax-ns#">
      <rdf:Description rdf:about=""/>
   </rdf:RDF>
</x:xmpmeta>
                                                                                                    
                                                                                                    
                                                                                                    
                                                                                                    
                                                                                                    
                                                                                                    
                                                                                                    
                                                                                                    
                                                                                                    
                                                                                                    
                                                                                                    
                                                                                                    
                                                                                                    
                                                                                                    
                                                                                                    
                                                                                                    
                                                                                                    
                                                                                                    
                                                                                                    
                                                                                                    
                           
<?xpacket end="w"?></metadata>
<defs>
    <style>
      .cls-1 {
        opacity: 0.31;
      }

      .cls-2 {
        opacity: 0;
      }

      .cls-3, .cls-4 {
        fill-rule: evenodd;
      }

      .cls-4 {
        stroke: #fff;
        stroke-miterlimit: 10;
        stroke-width: 0.5px;
      }
    </style>
  </defs>
  <g id="right-square" class="cls-1">
    <rect id="矩形" class="cls-2" width="18" height="18"/>
    <path id="路径" class="cls-3" d="M2880.25,2184.24l4.33-3.13a0.131,0.131,0,0,0,0-.22l-4.33-3.13a0.138,0.138,0,0,0-.22.11v0.83a0.559,0.559,0,0,0,.23.45l2.56,1.85-2.56,1.85a0.559,0.559,0,0,0-.23.45v0.83A0.138,0.138,0,0,0,2880.25,2184.24Z" transform="translate(-2873 -2172)"/>
    <path id="形状" class="cls-4" d="M2888.47,2173.97h-12.94a0.559,0.559,0,0,0-.56.56v12.94a0.559,0.559,0,0,0,.56.56h12.94a0.559,0.559,0,0,0,.56-0.56v-12.94A0.559,0.559,0,0,0,2888.47,2173.97Zm-0.7,12.8h-11.54v-11.54h11.54v11.54Z" transform="translate(-2873 -2172)"/>
  </g>
</svg>
