<svg id="图标" xmlns="http://www.w3.org/2000/svg" xmlns:xlink="http://www.w3.org/1999/xlink" viewBox="0 0 30 30"><defs><clipPath id="clip-path"><rect x="4.36" y="6.44" width="19.56" height="19.56" style="fill:none"/></clipPath></defs><title>app图标</title><g id="图层_35" data-name="图层 35"><path d="M15,0A15,15,0,1,0,30,15,15,15,0,0,0,15,0Zm0,28.56A13.56,13.56,0,1,1,28.56,15,13.57,13.57,0,0,1,15,28.56Z" style="fill:#818181"/><g style="clip-path:url(#clip-path)"><polygon points="4.36 12.56 14.14 17.45 22.7 13.17 22.7 23.56 23.93 23.56 23.93 12.56 14.14 7.67 4.36 12.56" style="fill:#22609c"/></g><g style="clip-path:url(#clip-path)"><polygon points="8.03 15.07 8.03 20.5 14.14 23.56 20.26 20.5 20.26 15.07 14.14 18.13 8.03 15.07" style="fill:#22609c"/></g></g></svg>