<svg id="编组_13备份" data-name="编组 13备份" xmlns="http://www.w3.org/2000/svg" xmlns:xlink="http://www.w3.org/1999/xlink" width="24" height="24" viewBox="0 0 24 24">
  <metadata><?xpacket begin="﻿" id="W5M0MpCehiHzreSzNTczkc9d"?>
<x:xmpmeta xmlns:x="adobe:ns:meta/" x:xmptk="Adobe XMP Core 5.6-c142 79.160924, 2017/07/13-01:06:39        ">
   <rdf:RDF xmlns:rdf="http://www.w3.org/1999/02/22-rdf-syntax-ns#">
      <rdf:Description rdf:about=""/>
   </rdf:RDF>
</x:xmpmeta>
                                                                                                    
                                                                                                    
                                                                                                    
                                                                                                    
                                                                                                    
                                                                                                    
                                                                                                    
                                                                                                    
                                                                                                    
                                                                                                    
                                                                                                    
                                                                                                    
                                                                                                    
                                                                                                    
                                                                                                    
                                                                                                    
                                                                                                    
                                                                                                    
                                                                                                    
                                                                                                    
                           
<?xpacket end="w"?></metadata>
<defs>
    <style>
      .cls-1 {
        fill-opacity: 0.85;
        fill: url(#linear-gradient);
      }

      .cls-2 {
        opacity: 0;
      }

      .cls-3 {
        fill: #fff;
        fill-rule: evenodd;
      }
    </style>
    <linearGradient id="linear-gradient" x1="24" y1="24" x2="0" gradientUnits="userSpaceOnUse">
      <stop offset="NaN" stop-color="#fc6e51"/>
      <stop offset="Infinity" stop-color="#db391f"/>
    </linearGradient>
  </defs>
  <rect id="矩形" class="cls-1" width="24" height="24" rx="8" ry="8"/>
  <g id="意见反馈">
    <rect id="矩形-2" data-name="矩形" class="cls-2" x="4" y="4" width="16" height="16"/>
    <path id="路径" class="cls-3" d="M26.533,4021.2a0.5,0.5,0,0,1-.4-0.78l5.829-8.32-2.816-1.97-5.828,8.32a0.492,0.492,0,0,1-.81-0.56l6.112-8.73a0.522,0.522,0,0,1,.319-0.21,0.531,0.531,0,0,1,.369.08l3.627,2.55a0.484,0.484,0,0,1,.121.68l-6.112,8.73A0.486,0.486,0,0,1,26.533,4021.2Z" transform="translate(-16 -4004)"/>
    <path id="形状" class="cls-3" d="M22.541,4023.05a0.482,0.482,0,0,1-.284-0.09,0.5,0.5,0,0,1-.209-0.45l0.363-4.38a0.509,0.509,0,0,1,.317-0.43,0.516,0.516,0,0,1,.517.11,0.488,0.488,0,0,1,.149.43l-0.29,3.51,3.181-1.47a0.5,0.5,0,0,1,.6.08h0a0.506,0.506,0,0,1,.137.44,0.494,0.494,0,0,1-.28.36l-4,1.84A0.509,0.509,0,0,1,22.541,4023.05Zm8.264-8.01a0.5,0.5,0,0,1-.284-0.09l-3.3-2.31a0.494,0.494,0,1,1,.567-0.81l3.3,2.31a0.494,0.494,0,0,1,.121.69,0.513,0.513,0,0,1-.405.21h0Z" transform="translate(-16 -4004)"/>
    <path id="路径-2" data-name="路径" class="cls-3" d="M33.438,4022.13h-5.3a0.5,0.5,0,0,1,0-.99h5.3A0.5,0.5,0,0,1,33.438,4022.13Z" transform="translate(-16 -4004)"/>
  </g>
</svg>
