<svg xmlns="http://www.w3.org/2000/svg" viewBox="0 0 22 22"><title>画板 38 副本</title><g id="辅助线"><path d="M11,22A11,11,0,1,1,22,11,11,11,0,0,1,11,22ZM16.87,7.33h-2l.49-1.82a.73.73,0,1,0-1.41-.38l-.6,2.2H10.44l.49-1.82a.73.73,0,1,0-1.41-.38l-.6,2.2h-3a.74.74,0,1,0,0,1.47H8.53l-1,3.67H5.13a.73.73,0,1,0,0,1.46h2l-.49,1.83a.73.73,0,0,0,1.41.38l.59-2.21h2.89l-.49,1.83a.7.7,0,0,0,.19.7.71.71,0,0,0,.71.19.7.7,0,0,0,.51-.51l.59-2.21h3.06a.73.73,0,1,0,0-1.46H13.47l1-3.67h2.42a.74.74,0,0,0,0-1.47Zm-7.8,5.14,1-3.67h2.88l-1,3.67Zm0,0" style="fill:#3979b6"/></g></svg>