<svg id="登录" xmlns="http://www.w3.org/2000/svg" width="39" height="39" viewBox="0 0 39 39">
  <metadata><?xpacket begin="﻿" id="W5M0MpCehiHzreSzNTczkc9d"?>
<x:xmpmeta xmlns:x="adobe:ns:meta/" x:xmptk="Adobe XMP Core 5.6-c142 79.160924, 2017/07/13-01:06:39        ">
   <rdf:RDF xmlns:rdf="http://www.w3.org/1999/02/22-rdf-syntax-ns#">
      <rdf:Description rdf:about=""/>
   </rdf:RDF>
</x:xmpmeta>
                                                                                                    
                                                                                                    
                                                                                                    
                                                                                                    
                                                                                                    
                                                                                                    
                                                                                                    
                                                                                                    
                                                                                                    
                                                                                                    
                                                                                                    
                                                                                                    
                                                                                                    
                                                                                                    
                                                                                                    
                                                                                                    
                                                                                                    
                                                                                                    
                                                                                                    
                                                                                                    
                           
<?xpacket end="w"?></metadata>
<defs>
    <style>
      .cls-1 {
        opacity: 0;
      }

      .cls-2 {
        fill: #fff;
        fill-rule: evenodd;
      }
    </style>
  </defs>
  <rect id="矩形" class="cls-1" width="39" height="39"/>
  <path id="形状" class="cls-2" d="M2659.5,4029a19.5,19.5,0,1,0,19.5,19.5A19.423,19.423,0,0,0,2659.5,4029Zm0,37.56a18.06,18.06,0,1,1,18.06-18.06A18.065,18.065,0,0,1,2659.5,4066.56Zm0.58-20.08a5.2,5.2,0,1,0-5.2-5.2A5.268,5.268,0,0,0,2660.08,4046.48Zm-0.58,14.44c3.32,0,8.67-1.59,9.68-4.04,0-5.06-4.34-9.1-9.68-9.1s-9.68,4.04-9.68,9.1C2650.98,4058.76,2656.18,4060.92,2659.5,4060.92Z" transform="translate(-2640 -4029)"/>
</svg>
