<svg id="微信__登录" data-name="微信_ 登录" xmlns="http://www.w3.org/2000/svg" width="40" height="40" viewBox="0 0 40 40">
  <metadata><?xpacket begin="﻿" id="W5M0MpCehiHzreSzNTczkc9d"?>
<x:xmpmeta xmlns:x="adobe:ns:meta/" x:xmptk="Adobe XMP Core 5.6-c142 79.160924, 2017/07/13-01:06:39        ">
   <rdf:RDF xmlns:rdf="http://www.w3.org/1999/02/22-rdf-syntax-ns#">
      <rdf:Description rdf:about=""/>
   </rdf:RDF>
</x:xmpmeta>
                                                                                                    
                                                                                                    
                                                                                                    
                                                                                                    
                                                                                                    
                                                                                                    
                                                                                                    
                                                                                                    
                                                                                                    
                                                                                                    
                                                                                                    
                                                                                                    
                                                                                                    
                                                                                                    
                                                                                                    
                                                                                                    
                                                                                                    
                                                                                                    
                                                                                                    
                                                                                                    
                           
<?xpacket end="w"?></metadata>
<defs>
    <style>
      .cls-1 {
        opacity: 0;
      }

      .cls-2 {
        fill: #fff;
        fill-rule: evenodd;
      }
    </style>
  </defs>
  <rect id="矩形" class="cls-1" width="40" height="40"/>
  <path id="形状" class="cls-2" d="M3314.75,3254.75c-4,0-7.25,2.5-7.25,6s3.25,6.25,7.25,6.25a8.882,8.882,0,0,0,2.5-.5l2.25,1.25-0.5-2.25c1.75-1.25,3-3,3-4.75C3322,3257.5,3318.5,3254.75,3314.75,3254.75Zm-2.25,5a0.663,0.663,0,0,1-.75-0.75,0.747,0.747,0,0,1,.75-1,1.116,1.116,0,0,1,1,.75A1.075,1.075,0,0,1,3312.5,3259.75Zm4.5,0a0.75,0.75,0,0,1,0-1.5,1.116,1.116,0,0,1,1,.75C3318.25,3259.25,3317.75,3259.75,3317,3259.75Zm-10,1a7,7,0,0,1,7.25-6.75H3315c-0.75-3.25-4.25-5.75-8.5-5.75-4.5,0-8.5,3.25-8.5,7.25a6.947,6.947,0,0,0,3.5,5.75l-0.75,2.5,3-1.5a12.548,12.548,0,0,0,3,.5h0.75A3.006,3.006,0,0,1,3307,3260.75Zm2.75-8.75a1,1,0,1,1,0,2,1.025,1.025,0,1,1,0-2h0Zm-5.25,1.75a0.918,0.918,0,0,1-.75.25,1.025,1.025,0,1,1,0-2,1.064,1.064,0,0,1,.75,1.75h0ZM3310,3239a19,19,0,1,0,19,19A18.992,18.992,0,0,0,3310,3239Zm0,36.75a17.818,17.818,0,0,1-17.75-17.75,17.606,17.606,0,0,1,17.75-17.5,17.818,17.818,0,0,1,17.75,17.75A17.606,17.606,0,0,1,3310,3275.75Z" transform="translate(-3290 -3238)"/>
</svg>
