<svg xmlns="http://www.w3.org/2000/svg" width="18.312" height="20" viewBox="0 0 18.312 20">
  <metadata><?xpacket begin="﻿" id="W5M0MpCehiHzreSzNTczkc9d"?>
<x:xmpmeta xmlns:x="adobe:ns:meta/" x:xmptk="Adobe XMP Core 5.6-c142 79.160924, 2017/07/13-01:06:39        ">
   <rdf:RDF xmlns:rdf="http://www.w3.org/1999/02/22-rdf-syntax-ns#">
      <rdf:Description rdf:about=""/>
   </rdf:RDF>
</x:xmpmeta>
                                                                                                    
                                                                                                    
                                                                                                    
                                                                                                    
                                                                                                    
                                                                                                    
                                                                                                    
                                                                                                    
                                                                                                    
                                                                                                    
                                                                                                    
                                                                                                    
                                                                                                    
                                                                                                    
                                                                                                    
                                                                                                    
                                                                                                    
                                                                                                    
                                                                                                    
                                                                                                    
                           
<?xpacket end="w"?></metadata>
<defs>
    <style>
      .cls-1 {
        fill: #d6cbff;
        fill-rule: evenodd;
      }
    </style>
  </defs>
  <path id="形状" class="cls-1" d="M565.729,2123.45l-2.139-2.14,1.414-1.42h0.022l2.117,2.12c0.006,0.01.006,0.02,0,.02l-1.414,1.42h0Zm-2.851-1.43-7.841,7.84,0.011,2.13,2.128,0.01,7.84-7.84-2.138-2.14h0Zm1.184-2.68v-5.96a1.384,1.384,0,0,0-1.382-1.38H550.234a1.384,1.384,0,0,0-1.383,1.38v15.17a1.377,1.377,0,0,0,1.383,1.37h3.344ZM553,2114.76h6.915a0.69,0.69,0,1,1,0,1.38H553A0.69,0.69,0,1,1,553,2114.76Zm0,3.44h6.915a0.69,0.69,0,1,1,0,1.38H553a0.69,0.69,0,1,1,0-1.38h0Zm-0.69,4.14a0.691,0.691,0,0,1,.69-0.69h2.767a0.69,0.69,0,1,1,0,1.38H553A0.691,0.691,0,0,1,552.309,2122.34Z" transform="translate(-548.844 -2112)"/>
</svg>
