<svg xmlns="http://www.w3.org/2000/svg" width="17.562" height="19.75" viewBox="0 0 17.562 19.75">
  <metadata><?xpacket begin="﻿" id="W5M0MpCehiHzreSzNTczkc9d"?>
<x:xmpmeta xmlns:x="adobe:ns:meta/" x:xmptk="Adobe XMP Core 5.6-c142 79.160924, 2017/07/13-01:06:39        ">
   <rdf:RDF xmlns:rdf="http://www.w3.org/1999/02/22-rdf-syntax-ns#">
      <rdf:Description rdf:about=""/>
   </rdf:RDF>
</x:xmpmeta>
                                                                                                    
                                                                                                    
                                                                                                    
                                                                                                    
                                                                                                    
                                                                                                    
                                                                                                    
                                                                                                    
                                                                                                    
                                                                                                    
                                                                                                    
                                                                                                    
                                                                                                    
                                                                                                    
                                                                                                    
                                                                                                    
                                                                                                    
                                                                                                    
                                                                                                    
                                                                                                    
                           
<?xpacket end="w"?></metadata>
<defs>
    <style>
      .cls-1 {
        fill: #b9e6ff;
        fill-rule: evenodd;
      }
    </style>
  </defs>
  <path id="形状" class="cls-1" d="M558.23,2044.64v-3.59a1.608,1.608,0,0,1,.84-1.43l3.17-1.79a1.7,1.7,0,0,1,1.69,0l1.34,0.76v-9.75a0.713,0.713,0,0,0-.71-0.71H550.94a0.713,0.713,0,0,0-.71.71v15.96a0.713,0.713,0,0,0,.71.71h7.54A1.61,1.61,0,0,1,558.23,2044.64Zm-5.03-12.68h9.12v1.52H553.2v-1.52Zm0.02,3.04h7.6v1.52h-7.6V2035Zm3.03,4.55h-3.01v-1.52h3.01v1.52Zm5.94,3.27v0.49a0.107,0.107,0,0,0,.14.13h0.69a3.931,3.931,0,0,0,.05-0.59v-0.17h-0.74a0.119,0.119,0,0,0-.14.14h0Zm1.87-1.08c0.039-.05.02-0.08-0.08-0.07H562.7a3.8,3.8,0,0,1-.52.46h1.6A2.368,2.368,0,0,0,564.06,2041.74Zm2.95-1.46-2.841-1.61a1.507,1.507,0,0,0-1.509,0l-2.84,1.61a1.446,1.446,0,0,0-.761,1.28v3.22a1.425,1.425,0,0,0,.761,1.28l2.84,1.61a1.507,1.507,0,0,0,1.509,0l2.841-1.61a1.445,1.445,0,0,0,.76-1.28v-3.22A1.445,1.445,0,0,0,567.01,2040.28Zm-1.191,4.23a1.208,1.208,0,0,1-.209.78,0.661,0.661,0,0,1-.54.2h-1.12a0.476,0.476,0,0,1-.55-0.49v-0.85a2.169,2.169,0,0,1-.82.98,3.477,3.477,0,0,1-1.1.44,0.267,0.267,0,0,1-.321-0.22,0.263,0.263,0,0,1,.191-0.33,2.112,2.112,0,0,0,1.529-1.02H561.93a0.244,0.244,0,0,1-.29-0.29v-1.17a0.168,0.168,0,0,1-.1.06,0.245,0.245,0,0,1-.34-0.12,0.282,0.282,0,0,1,.081-0.38,5.066,5.066,0,0,0,1.3-1.2,0.265,0.265,0,0,1,.35-0.08,0.32,0.32,0,0,1,.15.31h1.6c0.24,0.03.31,0.15,0.22,0.38a3.648,3.648,0,0,1-.4.62h0.53a0.254,0.254,0,0,1,.289.29v1.28a0.247,0.247,0,0,1-.289.29h-1.05v0.76a0.152,0.152,0,0,0,.16.16h0.89a0.184,0.184,0,0,0,.2-0.13,0.972,0.972,0,0,0,.04-0.31,0.28,0.28,0,1,1,.56,0l-0.011.04h0Zm-1.079-1.2v-0.49a0.116,0.116,0,0,0-.14-0.13h-0.98v0.23a3.7,3.7,0,0,1-.03.53h1.01A0.116,0.116,0,0,0,564.74,2043.31Z" transform="translate(-550.219 -2028.13)"/>
</svg>
