<svg xmlns="http://www.w3.org/2000/svg" width="21.188" height="17.62" viewBox="0 0 21.188 17.62">
  <metadata><?xpacket begin="﻿" id="W5M0MpCehiHzreSzNTczkc9d"?>
<x:xmpmeta xmlns:x="adobe:ns:meta/" x:xmptk="Adobe XMP Core 5.6-c142 79.160924, 2017/07/13-01:06:39        ">
   <rdf:RDF xmlns:rdf="http://www.w3.org/1999/02/22-rdf-syntax-ns#">
      <rdf:Description rdf:about=""/>
   </rdf:RDF>
</x:xmpmeta>
                                                                                                    
                                                                                                    
                                                                                                    
                                                                                                    
                                                                                                    
                                                                                                    
                                                                                                    
                                                                                                    
                                                                                                    
                                                                                                    
                                                                                                    
                                                                                                    
                                                                                                    
                                                                                                    
                                                                                                    
                                                                                                    
                                                                                                    
                                                                                                    
                                                                                                    
                                                                                                    
                           
<?xpacket end="w"?></metadata>
<defs>
    <style>
      .cls-1 {
        fill: #ffc69c;
        fill-rule: evenodd;
      }
    </style>
  </defs>
  <path id="形状" class="cls-1" d="M564.06,1960.99h-5.294v-5.29h5.294v5.29Zm-8.821.89a0.886,0.886,0,0,1-.882.88h-3.53a0.885,0.885,0,0,1,0-1.77h3.53a0.9,0.9,0,0,1,.882.89h0Zm3.527,3.53a0.885,0.885,0,0,1-.882.88h-7.057a0.885,0.885,0,0,1,0-1.77h7.057a0.879,0.879,0,0,1,.6.25,0.852,0.852,0,0,1,.278.64h0Zm7.058-13.24H548.181a1.768,1.768,0,0,0-1.766,1.76v14.13a1.744,1.744,0,0,0,.123.63,0.45,0.45,0,0,0,.017.06c0.021,0.05.053,0.09,0.079,0.14s0.053,0.1.086,0.15c0.017,0.03.041,0.05,0.058,0.08a1.519,1.519,0,0,0,.158.18c0.027,0.03.059,0.05,0.088,0.08a1.514,1.514,0,0,0,.173.14,0.078,0.078,0,0,1,.041.02,2.2,2.2,0,0,0,.258.14,2.367,2.367,0,0,0,.281.09c0.018,0,.032.01,0.05,0.01a1.4,1.4,0,0,0,.357.04h17.64a1.769,1.769,0,0,0,1.767-1.76v-14.13A1.769,1.769,0,0,0,565.824,1952.17Z" transform="translate(-546.406 -1952.19)"/>
</svg>
