<?xml version="1.0" standalone="no"?><!DOCTYPE svg PUBLIC "-//W3C//DTD SVG 1.1//EN" "http://www.w3.org/Graphics/SVG/1.1/DTD/svg11.dtd"><svg t="1560310822166" class="icon" style="" viewBox="0 0 1024 1024" version="1.1" xmlns="http://www.w3.org/2000/svg" p-id="1990" xmlns:xlink="http://www.w3.org/1999/xlink" width="300" height="300"><defs><style type="text/css"></style></defs><path d="M904.704 897.536h-56.32v-103.424c0-120.32-74.752-223.744-183.296-274.944 108.544-51.712 183.296-154.624 183.296-274.944V140.8h56.32c29.696 0 56.32-24.064 56.32-51.712 0-27.648-26.112-51.712-56.32-51.712H119.296c-29.696 0-56.32 24.064-56.32 51.712 0 27.648 26.112 51.712 56.32 51.712h56.32v103.424c0 120.32 74.752 223.744 183.296 274.944-108.544 51.712-183.296 154.624-183.296 274.944v103.424h-56.32c-29.696 0-56.32 24.064-56.32 51.712 0 27.648 26.112 51.712 56.32 51.712h784.896c29.696 0 56.32-24.064 56.32-51.712 0-27.648-26.112-51.712-55.808-51.712zM250.368 794.624c0-89.6 56.32-172.032 141.824-213.504 26.112-10.24 40.96-34.304 40.96-61.952 0-24.064-14.848-48.128-40.96-61.952-86.016-41.472-141.824-123.904-141.824-213.504V140.8h523.264v103.424c0 89.6-56.32 172.032-141.824 213.504-26.112 10.24-40.96 34.304-40.96 61.952 0 24.064 14.848 48.128 40.96 61.952 86.016 41.472 141.824 123.904 141.824 213.504v103.424H250.368v-103.936z" p-id="1991"></path><path d="M594.432 640c-26.112-13.824-52.224-27.648-74.752-44.544l-7.68-10.24-7.68 6.656c-22.528 20.48-48.64 34.304-74.752 44.544-63.488 34.304-104.448 89.6-104.448 158.208v34.304h373.76v-34.304c0-68.608-40.96-123.904-104.448-154.624zM512 454.144l11.264-10.24c22.528-20.48 48.64-34.304 74.752-48.128 26.112-10.24 48.64-30.72 63.488-51.712H362.496c18.944 20.48 37.376 37.888 63.488 51.712 26.112 13.824 52.224 27.648 74.752 48.128l11.264 10.24z" p-id="1992"></path></svg>