<?xml version="1.0" standalone="no"?><!DOCTYPE svg PUBLIC "-//W3C//DTD SVG 1.1//EN" "http://www.w3.org/Graphics/SVG/1.1/DTD/svg11.dtd"><svg t="1560751107894" class="icon" style="" viewBox="0 0 1024 1024" version="1.1" xmlns="http://www.w3.org/2000/svg" p-id="1985" xmlns:xlink="http://www.w3.org/1999/xlink" width="300" height="300"><defs><style type="text/css"></style></defs><path d="M901.9904 420.9152l-14.3872 4.4032L874.3424 431.616 856.064 441.0368l-15.104 9.4208-15.7696 10.7008-18.8928 15.104L780.4928 497.664l-22.6816 20.7872-18.2784 17.6128-25.1904 26.4704-35.2768 38.7072-11.0592 11.6224-28.3648 33.3824-29.6448 35.5328-28.672 36.8128-23.9616 32.1024-14.1824 20.1216-26.1632 36.8128-24.576 36.8128-22.6816 38.0416-7.5776 13.5168-3.4816 5.9904L451.584 892.2624 441.4976 880.64l-18.8928-22.3232-24.8832-28.3136-23.296-25.4976-30.5664-30.5152-33.3824-30.8736-25.856-22.3232-23.296-19.2-16.384-11.9808-19.5584-15.104-11.9808-7.5264-21.4528-14.4896-15.104-8.8064-17.6128-9.4208-18.2784-8.8064-18.8928-7.5776 172.9536-108.1856 150.6304 177.4592 123.1872-231.3216 3.6352-5.5296 4.2496-6.2976 14.1824-22.528 13.8752-20.4288 12.5952-18.2272 13.2096-18.5856 12.9024-17.3056 11.9808-15.2576 21.248-26.7776 13.5168-15.7184 10.3936-12.288 9.0624-9.9328 6.4512-6.8608 6.912-7.3216 6.5024-6.912 6.7072-6.7584 7.2192-7.2192 6.8608-6.4 6.6048-6.4512 7.6288-7.1168 6.8096-6.144 5.3248-4.6592 4.9664-4.352 4.864-4.096 4.4032-3.6864 3.4816-2.9184 5.2224-4.3008 5.376-4.1984 3.1232-2.4064 4.5056-3.3792 4.4544-3.4304 9.6768-7.168 8.6016-5.888 7.4752-5.12 7.6288-4.9664 5.9392-3.84 3.4816-2.2016 4.6592-2.7648 3.7888-2.2016 7.936-4.864 12.544-7.4752-0.256 5.12L887.9104 137.216l-1.8944 19.3536L883.2 182.528 880.384 209.92l-1.6384 15.5648-1.8944 26.2144-1.1776 16.0768 0 16.4864 0.4608 21.4528 1.6384 21.7088 3.072 22.1696 3.6352 17.7152 6.0416 22.1696 6.6048 19.0976 1.4336 4.2496 1.8944 4.2496 1.536 2.6112L901.9904 420.9152 901.9904 420.9152 901.9904 420.9152z" p-id="1986"></path></svg>