<?xml version="1.0" standalone="no"?><!DOCTYPE svg PUBLIC "-//W3C//DTD SVG 1.1//EN" "http://www.w3.org/Graphics/SVG/1.1/DTD/svg11.dtd"><svg t="1579579554229" class="icon" viewBox="0 0 1024 1024" version="1.1" xmlns="http://www.w3.org/2000/svg" p-id="2409" xmlns:xlink="http://www.w3.org/1999/xlink" width="128" height="128"><defs><style type="text/css"></style></defs><path d="M205.051466 620.812389c-5.864815-4.908506-14.581151-4.168237-19.525493 1.696578-4.925912 5.864815-4.168237 14.598557 1.696578 19.525493l105.619915 88.675636a13.791735 13.791735 0 0 0 8.914969 3.247765c3.952197 0 7.867535-1.678148 10.610524-4.944343 4.925912-5.864815 4.168237-14.598557-1.696578-19.525493l-105.619915-88.675636zM190.488745 695.737245c-5.846385-4.908506-14.598557-4.168237-19.525493 1.696578s-4.168237 14.616987 1.696578 19.525494l52.819172 44.3199a13.791735 13.791735 0 0 0 8.91497 3.247764c3.952197 0 7.867535-1.678148 10.610523-4.944342 4.925912-5.864815 4.168237-14.616987-1.696577-19.525493l-52.819173-44.319901z" fill="#ffffff" p-id="2410"></path><path d="M943.907594 177.573456c-0.138225-0.189419-0.16075-0.421841-0.309213-0.608188-0.181228-0.231398-0.453581-0.326619-0.644024-0.546755-10.839874-12.234406-26.484842-20.115251-44.073144-20.115251H122.258051c-17.459293 0-33.009039 7.748764-43.84277 19.816277-0.189419 0.21604-0.458701 0.312285-0.639928 0.539587-0.148463 0.188395-0.170989 0.422865-0.312285 0.614331-8.813605 10.327931-14.340538 23.542195-14.340538 38.146896v595.103652c0 32.59027 26.526821 59.117091 59.135521 59.117091H898.882237c32.59027 0 59.117091-26.526821 59.117091-59.117091V215.420353c0-14.464428-5.429664-27.559921-14.091734-37.846897z m-50.681299 15.687971L510.561441 496.064249 128.494537 193.261427h764.731758z m5.655942 639.423552H122.258051c-12.234406 0-22.17838-9.94295-22.17838-22.15995V217.914538l399.004016 316.207528c3.356296 2.652887 7.417025 3.988033 11.47673 3.988034s8.102005-1.335146 11.459325-3.988034l399.021421-315.757019v592.158958c0.001024 12.218024-9.941927 22.160974-22.158926 22.160974z" fill="#ffffff" p-id="2411"></path></svg>