<svg xmlns="http://www.w3.org/2000/svg" viewBox="0 0 79.99 87.39"><title>图层 39</title><g id="图层_2" data-name="图层 2"><g id="图标"><g id="图层_39" data-name="图层 39"><path d="M62.59,87.39H6.8A6.81,6.81,0,0,1,0,80.59V6.8A6.81,6.81,0,0,1,6.8,0H62.59a6.81,6.81,0,0,1,6.8,6.8V26.86a1.2,1.2,0,1,1-2.39,0V6.8a4.42,4.42,0,0,0-4.41-4.41H6.8A4.42,4.42,0,0,0,2.39,6.8V80.59A4.42,4.42,0,0,0,6.8,85H62.59A4.42,4.42,0,0,0,67,80.59V59.86a1.2,1.2,0,0,1,2.39,0V80.59A6.81,6.81,0,0,1,62.59,87.39Z" style="fill:#fff"/><path d="M57.53,13.78H9.94a1.17,1.17,0,0,1,0-2.34H57.53a1.17,1.17,0,1,1,0,2.34Z" style="fill:#fff"/><path d="M57.53,24.78H9.94a1.17,1.17,0,1,1,0-2.34H57.53a1.17,1.17,0,1,1,0,2.34Z" style="fill:#fff"/><path d="M57.53,35.78H9.94a1.17,1.17,0,1,1,0-2.34H57.53a1.17,1.17,0,0,1,0,2.34Z" style="fill:#fff"/><path d="M41.58,46.8H9.94a1.2,1.2,0,1,1,0-2.39H41.58a1.2,1.2,0,1,1,0,2.39Z" style="fill:#fff"/><path d="M29.58,72.8H9.94a1.2,1.2,0,1,1,0-2.39H29.58a1.2,1.2,0,1,1,0,2.39Z" style="fill:#fff"/><rect x="64.86" y="36.57" width="16.22" height="5.34" rx="0.5" ry="0.5" transform="translate(56.88 -42.04) rotate(50.53)" style="fill:#fff"/><path d="M34.65,71.76a.84.84,0,0,1-.79-.93L37.5,57.94a.56.56,0,0,1,.81.08l9.58,11.63a.57.57,0,0,1-.07.81Z" style="fill:#fff"/><path d="M40.09,57.67a1.44,1.44,0,0,1,.19-2l23-19a1.44,1.44,0,0,1,1.83,2.23l-23,19A1.44,1.44,0,0,1,40.09,57.67Z" style="fill:#fff"/><path d="M44.33,62.82a1.45,1.45,0,0,1,.19-2l23-19a1.42,1.42,0,0,1,2,.2,1.44,1.44,0,0,1-.19,2l-23,19A1.44,1.44,0,0,1,44.33,62.82Z" style="fill:#fff"/><path d="M48.57,68a1.44,1.44,0,0,1,.19-2l23-19a1.42,1.42,0,0,1,2,.2,1.44,1.44,0,0,1-.19,2l-23,19A1.45,1.45,0,0,1,48.57,68Z" style="fill:#fff"/></g></g></g></svg>