<?xml version="1.0" standalone="no"?><!DOCTYPE svg PUBLIC "-//W3C//DTD SVG 1.1//EN" "http://www.w3.org/Graphics/SVG/1.1/DTD/svg11.dtd"><svg t="1560751706834" class="icon" style="" viewBox="0 0 1024 1024" version="1.1" xmlns="http://www.w3.org/2000/svg" p-id="2713" xmlns:xlink="http://www.w3.org/1999/xlink" width="300" height="300"><defs><style type="text/css"></style></defs><path d="M866.016 740.992q28.992 30.016 42.496 55.008t-4.512 56.992q-4 6.016-11.008 14.496t-14.496 16.512-15.008 14.496-12.512 9.504q-24.992 15.008-59.008 8t-60.992-34.016l-236-236-128 128q-59.008 59.008-96 96.992-38.016 38.016-75.488 47.008t-66.496-16.992l-28.992-28.992q-6.016-6.016-7.008-8-11.008-14.016-12.992-28.512t2.496-28.512 13.504-27.008 20-24q8.992-8 32-30.016l54.016-56q32.992-32 73.504-72t84.512-84q-48-48-91.488-91.008t-78.016-76.992-56.512-55.488-27.008-26.496q-26.016-26.016-26.496-51.488t17.504-51.488q8-10.016 23.008-23.488t20.992-17.504q30.016-20 54.016-17.504t48 27.488l31.008 31.008q23.008 23.008 56.992 56t76.512 74.496 88.512 86.496q38.016-38.016 74.496-74.016t68-67.488 56.992-56.512 42.496-42.016q24-23.008 52-30.496t54.016 12.512q0.992 0.992 6.496 4.992t11.008 8.992 10.496 9.504 7.008 5.504q27.008 26.016 26.496 56.512t-26.496 56.512q-18.016 18.016-44.512 44.992t-59.008 59.008-68.512 68l-76 76q36.992 36 72.512 70.496t66.016 64.512 55.008 55.008 40.512 40.992z" p-id="2714"></path></svg>