<?xml version="1.0" standalone="no"?><!DOCTYPE svg PUBLIC "-//W3C//DTD SVG 1.1//EN" "http://www.w3.org/Graphics/SVG/1.1/DTD/svg11.dtd"><svg t="1527556344415" class="icon" style="" viewBox="0 0 1024 1024" version="1.1" xmlns="http://www.w3.org/2000/svg" p-id="2192" xmlns:xlink="http://www.w3.org/1999/xlink" width="200" height="200"><defs><style type="text/css"></style></defs><path d="M512 64C265.6 64 64 265.6 64 512s201.6 448 448 448 448-201.6 448-448S758.4 64 512 64z m0 688c-25.6 0-48-22.4-48-48s22.4-48 48-48 48 22.4 48 48-22.4 48-48 48z m41.6-185.6c0 32-12.8 57.6-41.6 57.6s-41.6-25.6-41.6-57.6l-16-236.8c0-32 25.6-57.6 54.4-57.6 28.8 0 57.6 25.6 57.6 57.6l-12.8 236.8z" p-id="2193" fill="#d81e06"></path></svg>