<svg id="图标" xmlns="http://www.w3.org/2000/svg" viewBox="0 0 25 25"><title>app图标</title><g id="图层_8" data-name="图层 8"><path d="M.24,24.77l5.34-2.94L21.91,5.49,19.5,3.08,3.17,19.42ZM4,20.32l.81.81L2.39,22.61Z" style="fill:#818181"/><path d="M22.35.23a2.57,2.57,0,0,1,2.41,2.41l-2,2L20.38,2.21Z" style="fill:#818181"/><polygon points="16.39 14.02 15.24 14.02 15.24 17.62 19.22 20.07 19.83 19.08 16.39 17.01 16.39 14.02" style="fill:#22609c;fill-rule:evenodd"/><path d="M21.75,11.77A7.65,7.65,0,0,0,20,10.3l-1.14,1.12a5.9,5.9,0,0,1,1.75,1.37,6.13,6.13,0,1,1-9.19,8.11,8.31,8.31,0,0,1-.52-.69l-1.16,1c.17.23.34.46.53.68A7.66,7.66,0,1,0,21.75,11.77Z" style="fill:#22609c;fill-rule:evenodd"/></g></svg>