<?xml version="1.0" standalone="no"?><!DOCTYPE svg PUBLIC "-//W3C//DTD SVG 1.1//EN" "http://www.w3.org/Graphics/SVG/1.1/DTD/svg11.dtd"><svg t="1566369735932" class="icon" viewBox="0 0 1024 1024" version="1.1" xmlns="http://www.w3.org/2000/svg" p-id="1825" xmlns:xlink="http://www.w3.org/1999/xlink" width="16" height="16"><defs><style type="text/css"></style></defs><path d="M887.808 416.256h-82.944V300.032C804.864 134.656 673.28 0 512 0 350.72 0 219.136 134.656 219.136 300.544v115.712H136.192c-39.936 0-72.192 33.28-72.192 74.24v459.264c0 40.96 32.256 74.24 72.192 74.24h751.616c39.936 0 72.192-33.28 72.192-74.24V490.496c0-40.96-32.256-74.24-72.192-74.24z m-335.36 317.952v77.312c0 5.12-4.096 9.728-9.728 9.728H480.768c-5.12 0-9.728-4.608-9.728-9.728v-77.312c-29.184-15.36-49.664-46.08-49.664-81.92 0-50.688 40.448-92.16 90.112-92.16 49.664 0 90.112 41.472 90.112 92.16 0.512 35.84-19.968 66.56-49.152 81.92z m139.776-317.952H331.776V305.152c0-101.888 80.896-184.832 180.224-184.832 99.328 0 180.224 82.944 180.224 184.832v111.104z m0 0" p-id="1826" fill="#ecb926"></path></svg>