<svg id="图标" xmlns="http://www.w3.org/2000/svg" viewBox="0 0 48 48"><title>画板 1 副本 4</title><g id="图层_40" data-name="图层 40"><path d="M18.51,7h0V7H8A1,1,0,0,0,7,8V8H7V18.49H7a1,1,0,0,0,2,0V9h9.45l.06,0a1,1,0,0,0,0-2Z" style="fill:#fff"/><path d="M41,18.5h0V8h0a1,1,0,0,0-1-1H29.49a1,1,0,0,0,0,2H39v9.45s0,0,0,.06a1,1,0,0,0,2,0Z" style="fill:#fff"/><path d="M29.49,41h0v0H40a1,1,0,0,0,1-1v0h0V29.51h0a1,1,0,0,0-2,0V39H29.55l-.06,0a1,1,0,0,0,0,2Z" style="fill:#fff"/><path d="M7,29.5H7V40H7a1,1,0,0,0,1,1h10.5a1,1,0,0,0,0-2H9V29.56s0,0,0-.06a1,1,0,0,0-2,0Z" style="fill:#fff"/><path d="M37.84,23.83a1,1,0,0,0-1-1H11.09a1,1,0,0,0,0,2H36.84A1,1,0,0,0,37.84,23.83Z" style="fill:#fff"/></g></svg>