<?xml version="1.0" standalone="no"?><!DOCTYPE svg PUBLIC "-//W3C//DTD SVG 1.1//EN" "http://www.w3.org/Graphics/SVG/1.1/DTD/svg11.dtd"><svg t="1583832494787" class="icon" viewBox="0 0 1024 1024" version="1.1" xmlns="http://www.w3.org/2000/svg" p-id="3941" xmlns:xlink="http://www.w3.org/1999/xlink" width="128" height="128"><defs><style type="text/css"></style></defs><path d="M732.571604 320.40945c-18.237363-13.406335-43.943838-9.506515-57.350173 8.751315l-223.600591 304.095903L347.241562 503.811504c-14.20042-17.656125-40.023552-20.429285-57.679677-6.208399-17.616216 14.230096-20.391423 40.054251-6.188956 57.679677l137.787156 170.925904c7.820106 9.69071 19.557428 15.280008 31.953759 15.280008 0.291642 0 0.601704 0 0.911766 0 12.706393-0.301875 24.581861-6.461155 32.128745-16.723893l255.127631-347.002109C754.727207 359.50384 750.809991 333.826018 732.571604 320.40945z" p-id="3942"></path><path d="M511.784082 2.50096c-281.630239 0-510.739287 229.129514-510.739287 510.739287 0 281.630239 229.110071 510.759753 510.739287 510.759753s510.739287-229.129514 510.739287-510.759753C1022.523369 231.630475 793.414321 2.50096 511.784082 2.50096zM511.784082 924.664597c-226.839355 0-411.404907-184.565553-411.404907-411.42435 0-226.840378 184.565553-411.404907 411.404907-411.404907 226.840378 0 411.404907 184.563506 411.404907 411.404907C923.18899 740.099045 738.624461 924.664597 511.784082 924.664597z" p-id="3943"></path></svg>