<?xml version="1.0" standalone="no"?><!DOCTYPE svg PUBLIC "-//W3C//DTD SVG 1.1//EN" "http://www.w3.org/Graphics/SVG/1.1/DTD/svg11.dtd"><svg t="1583821441889" class="icon" viewBox="0 0 1024 1024" version="1.1" xmlns="http://www.w3.org/2000/svg" p-id="3163" xmlns:xlink="http://www.w3.org/1999/xlink" width="128" height="128"><defs><style type="text/css"></style></defs><path d="M480.834783 919.373913c-17.808696-17.808696-15.582609-46.747826 2.226087-62.330435L841.46087 512 480.834783 166.956522c-17.808696-17.808696-17.808696-44.521739-2.226087-62.330435 17.808696-17.808696 44.521739-17.808696 62.330434-2.226087l365.078261 349.495652c15.582609 15.582609 24.486957 37.843478 24.486957 57.878261s-8.904348 44.521739-24.486957 57.878261L543.165217 921.6c-8.904348 8.904348-20.034783 13.356522-31.165217 13.356522-11.130435-2.226087-24.486957-6.678261-31.165217-15.582609zM845.913043 516.452174z m2.226087-11.130435z" fill="" p-id="3164"></path><path d="M102.4 919.373913c-17.808696-17.808696-15.582609-46.747826 2.226087-62.330435L463.026087 512 104.626087 166.956522c-17.808696-17.808696-17.808696-44.521739-2.226087-62.330435 17.808696-17.808696 44.521739-17.808696 62.330435-2.226087l365.078261 349.495652C547.617391 467.478261 556.521739 489.73913 556.521739 512s-8.904348 44.521739-24.486956 57.878261L164.730435 921.6c-8.904348 8.904348-20.034783 13.356522-31.165218 13.356522-11.130435-2.226087-22.26087-6.678261-31.165217-15.582609z m367.304348-402.921739z m0-11.130435z" fill="" p-id="3165"></path></svg>