<?xml version="1.0" standalone="no"?><!DOCTYPE svg PUBLIC "-//W3C//DTD SVG 1.1//EN" "http://www.w3.org/Graphics/SVG/1.1/DTD/svg11.dtd"><svg t="1566370267479" class="icon" viewBox="0 0 1024 1024" version="1.1" xmlns="http://www.w3.org/2000/svg" p-id="6141" width="128" height="128" xmlns:xlink="http://www.w3.org/1999/xlink"><defs><style type="text/css"></style></defs><path d="M290.816 752.128c-2.56 1.024-4.096 0.512-5.12-1.024l-33.28-51.2 130.56-85.504c9.216-7.68 11.264-15.872 6.144-26.112l-55.296-84.48-178.176 116.736 15.36 23.552 148.48-97.28 29.696 45.568c2.048 3.072 1.536 6.144-1.536 8.192l-112.128 73.216-16.384-25.088-30.72 19.968 74.24 113.664c6.656 11.776 16.384 13.312 28.672 4.608l162.816-107.008-15.872-24.576-147.456 96.768zM591.1552 448.6656l-176.00512 115.33824-15.4368-23.552 176.01024-115.33824zM387.584 532.48l30.208-19.968-10.24-15.36 122.368-79.872 10.24 15.36 28.16-18.944-25.088-38.912-70.656 46.592-6.144-9.216-33.792 22.528 5.632 8.704-76.288 50.176zM616.448 547.328c-3.584 2.56-6.144 2.56-7.168 0l-25.6-38.912 36.352-24.064-15.36-23.552-183.808 120.832 15.36 23.552 48.64-31.744 13.312 48.128c1.536 3.584 0 6.656-4.608 8.704l-28.16 18.432 13.312 20.48 41.984-27.648c12.8-7.68 17.408-16.384 14.336-25.6l-17.408-64 34.816-23.04 29.184 44.544c7.68 14.336 18.944 15.872 33.28 4.608l47.616-31.232-13.824-20.992-32.256 21.504zM830.464 403.456c-5.12 4.096-9.728 3.584-14.336-2.048l-7.168-7.168 16.896-11.264c13.824-6.656 15.872-16.384 5.632-28.16l-46.08-70.656-26.624 17.408 37.888 57.344c2.048 3.072 1.536 6.144-1.536 8.192l-5.12 3.072-57.856-70.656 24.576-15.872c13.312-6.656 16.384-16.384 8.192-29.696l-10.752-23.04-28.16 18.432 2.56 7.68c1.536 3.584 0.512 6.656-2.56 8.704l-12.8 8.704-9.728-14.848-30.208 19.456 9.728 14.848-100.352 66.048 90.624 138.752c4.096 5.12 3.584 8.704-1.536 11.776l-3.072 2.048 14.336 22.016 20.992-13.824c14.336-7.68 16.384-17.92 7.168-30.208l-54.272-82.944 23.552-15.36c8.192-6.656 14.336-5.632 18.944 4.096l39.424 59.904c4.096 5.12 3.584 8.704-1.536 11.776l-16.384 10.752 14.336 22.016 31.744-20.48c16.384-8.192 18.944-19.456 7.68-32.768l-55.808-84.992c-7.68-16.384-18.432-18.944-32.256-6.656l-44.544 29.184-11.264-16.896 71.168-46.592 94.208 116.736c8.704 12.8 18.432 14.336 29.696 4.608l44.032-28.672-15.872-24.576-23.552 13.824zM210.944 379.904l26.624 20.48 0.512-33.28 27.648-18.944-31.744-10.752-9.216-32.256-19.968 27.136-33.28-1.024 19.456 27.136s-11.264 31.744-11.776 31.744l31.744-10.24zM284.16 243.712l32.768 6.656 12.8 31.232 16.896-29.184 33.28-2.56-22.528-25.088 7.68-32.768-30.72 13.824-28.672-17.408 3.584 33.28s-25.6 22.016-25.088 22.016zM815.616 651.776l-26.624-20.48v33.28l-27.648 18.944 31.744 10.752 9.216 32.256 19.968-27.136 33.28 1.024-19.456-27.136 11.264-31.744zM514.56 158.208l-15.872-29.696-13.824 30.72-33.28 6.656 25.088 22.528-4.096 33.28 29.184-16.896 30.208 14.336-7.168-32.768 23.04-24.576z" p-id="6142"></path><path d="M1016.832 369.152l-155.648-245.76c-13.824-21.504-41.984-27.648-63.488-14.336l-776.192 492.032c-21.504 13.824-27.648 41.984-14.336 63.488l155.648 245.76c13.824 21.504 41.984 27.648 63.488 14.336l776.704-492.032c20.992-13.824 27.648-41.984 13.824-63.488z m-30.72 37.376l-776.704 491.52c-6.656 4.096-15.872 2.048-19.968-4.608l-155.648-245.76c-4.096-6.656-2.048-15.872 4.608-19.968l776.704-492.032c6.656-4.096 15.872-2.048 19.968 4.608l155.648 245.76c4.096 6.656 2.048 15.872-4.608 20.48zM508.928 876.544l15.872 29.696 13.824-30.72 33.28-5.12-24.576-22.528 4.608-33.28-29.184 16.384-30.208-14.848 6.656 32.768-23.552 24.064zM707.072 785.408l-12.8-31.232-16.896 28.672-33.28 2.56 22.528 25.088-7.68 32.768 30.72-13.312 28.672 17.92-3.584-33.28 25.088-22.016zM93.184 524.288c-3.072-141.312 66.048-281.6 194.048-363.008 128.512-81.408 284.672-83.456 411.136-19.968l30.72-19.456c-37.376-20.992-77.824-36.352-120.32-46.08-56.832-12.8-114.688-14.336-172.032-5.12-59.392 9.728-115.2 31.232-166.4 63.488s-94.72 73.728-128.512 123.392c-33.28 47.616-56.32 100.864-69.12 157.696-9.728 42.496-12.8 85.504-10.24 128.512l30.72-19.456z" p-id="6143"></path><path d="M927.744 503.808c3.584 141.312-65.536 281.6-194.048 363.008-128.512 81.408-284.672 83.456-411.136 19.968l-30.72 19.456c37.376 20.992 77.824 36.352 120.32 46.08 56.832 12.8 114.688 14.336 172.032 5.12 59.392-9.728 115.2-31.232 166.4-63.488s94.72-73.728 128.512-123.392c32.768-47.616 56.32-100.864 69.12-157.696 9.728-42.496 12.8-85.504 10.24-128.512l-30.72 19.456zM379.904 307.712c35.84-22.528 75.264-34.816 115.2-37.376l47.616-30.208c-62.464-7.168-125.44 6.656-179.2 40.96s-93.696 84.992-113.664 144.896l47.616-30.208c18.944-34.816 46.592-65.024 82.432-88.064z" p-id="6144"></path><path d="M641.024 720.384c-35.84 22.528-75.264 34.816-115.2 37.376l-47.616 30.208c62.464 7.168 125.44-6.656 179.2-40.96s93.696-84.992 113.664-144.896l-47.616 30.208c-18.432 34.304-46.08 65.024-82.432 88.064z" p-id="6145"></path></svg>