<?xml version="1.0" standalone="no"?><!DOCTYPE svg PUBLIC "-//W3C//DTD SVG 1.1//EN" "http://www.w3.org/Graphics/SVG/1.1/DTD/svg11.dtd"><svg t="1561776437104" class="icon" viewBox="0 0 1024 1024" version="1.1" xmlns="http://www.w3.org/2000/svg" p-id="1984" xmlns:xlink="http://www.w3.org/1999/xlink" width="300" height="300"><defs><style type="text/css"></style></defs><path d="M688 412.8c-28.8 0-51.2 22.4-51.2 51.2 0 28.8 22.4 51.2 51.2 51.2 28.8 0 51.2-22.4 51.2-51.2 0-28.8-22.4-51.2-51.2-51.2z m198.4-297.6h-745.6c-41.6 0-73.6 32-73.6 73.6V736c0 41.6 32 73.6 73.6 73.6h272l99.2 99.2 99.2-99.2h272c41.6 0 73.6-32 73.6-73.6v-547.2c6.4-41.6-28.8-73.6-70.4-73.6z m0 566.4c0 28.8-22.4 51.2-51.2 51.2h-246.4l-76.8 76.8-76.8-76.8h-252.8c-25.6 0-44.8-19.2-44.8-44.8v-454.4c0-25.6 19.2-44.8 44.8-44.8h652.8c25.6 0 48 22.4 48 48l3.2 444.8z m-544-268.8c-28.8 0-51.2 22.4-51.2 51.2 0 28.8 22.4 51.2 51.2 51.2 28.8 0 51.2-22.4 51.2-51.2-3.2-28.8-25.6-51.2-51.2-51.2z m172.8 0c-28.8 0-51.2 22.4-51.2 51.2 0 28.8 22.4 51.2 51.2 51.2 28.8 0 51.2-22.4 51.2-51.2-3.2-28.8-22.4-51.2-51.2-51.2z" p-id="1985"></path></svg>